<svg width="84" height="76" viewBox="0 0 84 76" fill="none" xmlns="http://www.w3.org/2000/svg">
<g clip-path="url(#clip0_11_3056)">
<path d="M63.5371 2.23391C56.1401 4.49552 48.8083 8.56949 44.9907 15.5724C41.8756 21.2856 41.5746 28.5127 45.2267 34.0086L46.0716 32.5629C41.5979 32.4043 37.1633 33.4904 33.2623 35.6999C29.3613 37.9095 26.1473 41.1557 23.9787 45.0766C22.0075 48.7893 21.0197 52.941 21.1095 57.1355C21.1867 62.2974 23.4012 66.8447 25.1479 71.5908C25.5693 72.7544 27.3606 72.0364 26.9339 70.8767C25.3961 66.6775 23.3864 62.6395 23.0707 58.1104C22.8152 54.1782 23.5939 50.2437 25.3296 46.6974C29.103 38.9993 37.3356 34.255 45.8399 34.3803C46.015 34.3982 46.1918 34.3651 46.349 34.285C46.5061 34.205 46.6369 34.0813 46.7256 33.929C46.8143 33.7767 46.8572 33.6021 46.849 33.4264C46.8408 33.2507 46.782 33.0812 46.6796 32.9385C43.2245 27.8122 43.8159 20.9166 46.8236 15.6972C50.4597 9.38118 57.2473 5.55536 63.9248 3.21245C64.5677 2.98719 64.1787 2.05008 63.5449 2.24423L63.5371 2.23391Z" fill="#CED2FC"/>
<path d="M27.2658 70.2561C29.5492 66.9662 31.1689 63.0431 32.9402 59.4509C33.4352 58.4468 31.9302 57.6139 31.2654 58.4788C28.5751 62.011 26.4882 65.9622 25.0896 70.1716L26.3325 69.6643L20.8026 66.9829C19.1537 66.1855 17.3934 65.0026 15.5813 64.7004C15.406 64.6828 15.2295 64.722 15.0778 64.812C14.926 64.902 14.807 65.0383 14.7382 65.2006C14.6695 65.3629 14.6546 65.5428 14.6958 65.7137C14.737 65.8847 14.832 66.0378 14.967 66.1504C16.3282 67.375 18.3931 68.0128 20.0433 68.8012L25.5874 71.4475C25.8194 71.54 26.0787 71.5387 26.3105 71.4441C26.5423 71.3495 26.7287 71.1689 26.8304 70.9402C28.1705 66.8831 30.181 63.0764 32.7782 59.6782L31.1034 58.706C29.4422 62.2719 27.4272 65.9505 26.3143 69.7265C26.1589 70.2645 26.8589 70.8055 27.2373 70.2615L27.2658 70.2561Z" fill="#CED2FC"/>
<path d="M32.1403 58.5404C29.0218 59.4919 25.8999 60.4353 22.7745 61.3705L18.2433 62.7117C16.8007 63.1266 15.1636 63.3481 13.9025 64.1766C13.7911 64.2648 13.7076 64.3833 13.6622 64.5178C13.6168 64.6522 13.6115 64.7968 13.6468 64.9339C13.6821 65.0711 13.7565 65.1949 13.8611 65.2903C13.9657 65.3857 14.0959 65.4485 14.2359 65.4713C15.6306 65.5214 16.9578 64.9425 18.2928 64.5358C19.8896 64.0452 21.4929 63.5417 23.0793 62.9941C26.2522 61.8991 29.3776 60.6834 32.4554 59.347C32.559 59.3024 32.6414 59.2193 32.685 59.1153C32.7287 59.0113 32.7302 58.8946 32.6893 58.7899C32.6483 58.6851 32.5682 58.6005 32.4657 58.554C32.3633 58.5074 32.2466 58.5025 32.1403 58.5404Z" fill="#CED2FC"/>
</g>
<defs>
<clipPath id="clip0_11_3056">
<rect width="78" height="36" fill="white" transform="translate(83.9629 28.7554) rotate(143.012)"/>
</clipPath>
</defs>
</svg>
