<svg width="20" height="17" viewBox="0 0 20 17" fill="none" xmlns="http://www.w3.org/2000/svg">
<path d="M18.875 3.10522C18.875 3.19897 19.4688 5.76147 17.75 8.19897C16.5625 9.94897 14.5938 11.1677 11.875 11.8865C11.3125 12.0427 10.9062 12.574 10.9062 13.1677C10.9062 13.9177 11.5 14.5115 12.25 14.5115H12.4062C13.2188 14.5115 13.9062 15.199 13.9062 16.0115C13.9062 16.2927 13.7188 16.5115 13.4375 16.5115H6.46875C6.21875 16.5115 6 16.2927 6 16.0115C6 15.199 6.65625 14.5115 7.5 14.5115H7.625C8.375 14.5115 9 13.9177 8.96875 13.1677C8.96875 12.574 8.59375 12.0427 8 11.8865C5.28125 11.1677 3.3125 9.94897 2.15625 8.19897C0.5 5.76147 1.09375 3.19897 1.09375 3.10522C1.1875 2.76147 1.5 2.51147 1.84375 2.51147H5C4.96875 2.13647 4.96875 1.79272 5 1.48022C5 0.948975 5.4375 0.511475 6 0.511475H13.9688C14.5312 0.511475 14.9688 0.948975 14.9688 1.48022C15 1.79272 15 2.13647 14.9688 2.51147H18.125C18.4688 2.51147 18.7812 2.76147 18.875 3.10522ZM3.40625 7.38647C4.125 8.48022 5.28125 9.32397 6.8125 9.94897C5.65625 8.13647 5.1875 5.88647 5 4.01147H2.5C2.46875 4.76147 2.53125 6.10522 3.40625 7.38647ZM16.5625 7.38647C17.4375 6.10522 17.5 4.76147 17.4688 4.01147H14.9688C14.7812 5.88647 14.3125 8.13647 13.1562 9.94897C14.6875 9.32397 15.8438 8.48022 16.5625 7.38647Z" fill="#080808" fill-opacity="0.25"/>
</svg>
