<svg width="106" height="106" viewBox="0 0 106 106" fill="none" xmlns="http://www.w3.org/2000/svg">
<rect width="106" height="106" rx="24" fill="#DD9933"/>
<path d="M54.1516 34.6001C53.8466 34.6001 53.5541 34.7213 53.3384 34.9369C53.1227 35.1526 53.0016 35.4451 53.0016 35.7501V41.7301C53.0016 44.8972 55.1337 47.5629 58.0386 48.3771C57.5326 54.6791 55.711 59.3826 54.2183 62.2829C54.6415 62.7797 55.0394 63.15 55.3499 63.4099C56.5436 64.4081 57.6016 66.0342 57.6016 68.0628C57.6031 69.2637 57.2194 70.4335 56.5068 71.4001H69.1016C70.0166 71.4001 70.8941 71.0366 71.5411 70.3896C72.1881 69.7426 72.5516 68.8651 72.5516 67.9501V67.244C72.5516 66.4436 72.2779 65.7053 71.857 65.1004C70.615 63.3133 67.0983 57.5334 66.3623 48.3748C67.812 47.9684 69.0891 47.0992 69.9989 45.8995C70.9087 44.6999 71.4013 43.2357 71.4016 41.7301V35.7501C71.4016 35.4451 71.2804 35.1526 71.0647 34.9369C70.8491 34.7213 70.5566 34.6001 70.2516 34.6001H68.5266C68.0691 34.6001 67.6303 34.7818 67.3068 35.1053C66.9833 35.4288 66.8016 35.8676 66.8016 36.3251V38.0501C66.8019 38.2011 66.7724 38.3507 66.7149 38.4904C66.6574 38.63 66.5729 38.7569 66.4664 38.8639C66.2511 39.08 65.9589 39.2018 65.6539 39.2024C65.3489 39.203 65.0561 39.0824 64.84 38.8672C64.6239 38.652 64.5022 38.3597 64.5016 38.0547V38.0501L64.4924 36.3159C64.4899 35.86 64.3071 35.4236 63.9839 35.1021C63.6606 34.7806 63.2233 34.6001 62.7674 34.6001H61.6358C61.1799 34.6001 60.7425 34.7806 60.4192 35.1021C60.096 35.4236 59.9132 35.86 59.9108 36.3159L59.9016 38.0547C59.901 38.3597 59.7792 38.652 59.5631 38.8672C59.347 39.0824 59.0543 39.203 58.7493 39.2024C58.4443 39.2018 58.152 39.08 57.9368 38.8639C57.7215 38.6478 57.601 38.3551 57.6016 38.0501V36.3251C57.6016 35.8676 57.4198 35.4288 57.0963 35.1053C56.7728 34.7818 56.3341 34.6001 55.8766 34.6001H54.1516ZM44.9516 41.5001C43.6196 41.5001 42.3161 41.8857 41.1984 42.6102C40.0807 43.3348 39.1966 44.3673 38.6529 45.5833C38.1091 46.7992 37.9289 48.1465 38.134 49.4626C38.3391 50.7787 38.9208 52.0073 39.8088 53.0001H39.2016C38.5916 53.0001 38.0066 53.2424 37.5752 53.6738C37.1439 54.1051 36.9016 54.6901 36.9016 55.3001C36.9016 55.9101 37.1439 56.4951 37.5752 56.9264C38.0066 57.3578 38.5916 57.6001 39.2016 57.6001H40.3976C39.542 61.7355 37.2857 64.1229 36.0276 65.174C35.2318 65.841 34.6016 66.8668 34.6016 68.0628C34.6016 69.9051 36.0966 71.4001 37.9389 71.4001H51.9666C53.8066 71.4001 55.3016 69.9051 55.3016 68.0628C55.3016 66.8668 54.6714 65.841 53.8756 65.174C52.6175 64.1229 50.3612 61.7355 49.5056 57.6001H50.7016C51.3116 57.6001 51.8966 57.3578 52.3279 56.9264C52.7592 56.4951 53.0016 55.9101 53.0016 55.3001C53.0016 54.6901 52.7592 54.1051 52.3279 53.6738C51.8966 53.2424 51.3116 53.0001 50.7016 53.0001H50.0944C50.9823 52.0073 51.564 50.7787 51.7691 49.4626C51.9742 48.1465 51.794 46.7992 51.2502 45.5833C50.7065 44.3673 49.8224 43.3348 48.7047 42.6102C47.587 41.8857 46.2835 41.5001 44.9516 41.5001Z" fill="white"/>
</svg>
