<svg width="106" height="106" viewBox="0 0 106 106" fill="none" xmlns="http://www.w3.org/2000/svg">
<rect width="106" height="106" rx="24" fill="#E54F6D"/>
<path d="M72.2854 47.2501L47.2514 72.2823C46.9844 72.5494 46.6674 72.7612 46.3186 72.9057C45.9697 73.0502 45.5958 73.1246 45.2182 73.1246C44.8406 73.1246 44.4667 73.0502 44.1178 72.9057C43.769 72.7612 43.452 72.5494 43.185 72.2823L33.7173 62.8164C33.4503 62.5494 33.2384 62.2324 33.0939 61.8836C32.9494 61.5347 32.875 61.1608 32.875 60.7832C32.875 60.4056 32.9494 60.0317 33.0939 59.6829C33.2384 59.334 33.4503 59.017 33.7173 58.7501L38.9588 53.5086C39.0255 53.4417 39.1048 53.3887 39.1921 53.3526C39.2793 53.3164 39.3728 53.2978 39.4673 53.2978C39.5618 53.2978 39.6553 53.3164 39.7425 53.3526C39.8298 53.3887 39.9091 53.4417 39.9758 53.5086L46.2343 59.7671C46.3741 59.9068 46.5411 60.0161 46.725 60.0883C46.909 60.1606 47.1058 60.1941 47.3032 60.1868C47.5007 60.1796 47.6945 60.1317 47.8726 60.0462C48.0508 59.9607 48.2093 59.8394 48.3385 59.6898C48.5745 59.405 48.6946 59.0417 48.6746 58.6724C48.6546 58.303 48.4961 57.9547 48.2307 57.6971L42.0081 51.4745C41.8737 51.3398 41.7982 51.1572 41.7982 50.9669C41.7982 50.7766 41.8737 50.594 42.0081 50.4593L44.7034 47.764C44.7701 47.6971 44.8494 47.6441 44.9367 47.6079C45.0239 47.5718 45.1175 47.5532 45.2119 47.5532C45.3064 47.5532 45.3999 47.5718 45.4871 47.6079C45.5744 47.6441 45.6537 47.6971 45.7204 47.764L51.9789 54.0225C52.1187 54.1621 52.2857 54.2715 52.4697 54.3437C52.6536 54.4159 52.8504 54.4495 53.0478 54.4422C53.2453 54.435 53.4391 54.3871 53.6172 54.3016C53.7954 54.2161 53.9539 54.0948 54.0831 53.9452C54.3192 53.6604 54.4392 53.2971 54.4192 52.9277C54.3992 52.5584 54.2407 52.2101 53.9753 51.9525L47.7599 45.7245C47.6255 45.5898 47.55 45.4072 47.55 45.2169C47.55 45.0266 47.6255 44.844 47.7599 44.7093L50.4552 42.014C50.5899 41.8795 50.7725 41.8041 50.9628 41.8041C51.1531 41.8041 51.3357 41.8795 51.4704 42.014L57.7289 48.2725C57.8687 48.4124 58.0359 48.522 58.22 48.5944C58.404 48.6668 58.6011 48.7004 58.7988 48.6932C58.9964 48.6859 59.1905 48.638 59.3688 48.5523C59.5471 48.4666 59.7057 48.345 59.8349 48.1952C60.0707 47.9102 60.1904 47.5468 60.1701 47.1774C60.1498 46.808 59.991 46.4599 59.7253 46.2025L53.5099 39.9745C53.3755 39.8398 53.3 39.6572 53.3 39.4669C53.3 39.2766 53.3755 39.094 53.5099 38.9593L58.7514 33.7178C59.0183 33.4508 59.3353 33.2389 59.6842 33.0944C60.033 32.9499 60.4069 32.8755 60.7845 32.8755C61.1621 32.8755 61.536 32.9499 61.8849 33.0944C62.2337 33.2389 62.5507 33.4508 62.8177 33.7178L72.2854 43.1837C72.5525 43.4507 72.7643 43.7677 72.9088 44.1165C73.0533 44.4654 73.1277 44.8393 73.1277 45.2169C73.1277 45.5945 73.0533 45.9684 72.9088 46.3173C72.7643 46.6661 72.5525 46.9831 72.2854 47.2501Z" fill="white"/>
</svg>
