<svg width="505" height="451" viewBox="0 0 505 451" fill="none" xmlns="http://www.w3.org/2000/svg">
<ellipse cx="238" cy="223" rx="63" ry="58" fill="#F8C15B"/>
<path d="M199.216 205.976H201.328V217H199.216V205.976ZM194.256 205H206.288V206.856H194.256V205ZM207.651 204.68H209.731V217H207.651V204.68ZM213.331 207.72C214.184 207.72 214.91 207.891 215.507 208.232C216.104 208.573 216.558 209.064 216.867 209.704C217.187 210.333 217.347 211.096 217.347 211.992V217H215.267V212.328C215.267 211.379 215.043 210.664 214.595 210.184C214.158 209.693 213.512 209.448 212.659 209.448C212.072 209.448 211.555 209.581 211.107 209.848C210.67 210.104 210.328 210.467 210.083 210.936C209.848 211.405 209.731 211.955 209.731 212.584L208.995 212.184C209.091 211.245 209.336 210.445 209.731 209.784C210.126 209.123 210.632 208.616 211.251 208.264C211.87 207.901 212.563 207.72 213.331 207.72ZM224.376 217.224C223.32 217.224 222.381 217.027 221.56 216.632C220.739 216.227 220.093 215.667 219.624 214.952C219.155 214.237 218.92 213.405 218.92 212.456C218.92 211.517 219.139 210.696 219.576 209.992C220.024 209.277 220.637 208.723 221.416 208.328C222.205 207.923 223.107 207.72 224.12 207.72C225.133 207.72 226.008 207.949 226.744 208.408C227.491 208.856 228.067 209.491 228.472 210.312C228.877 211.133 229.08 212.099 229.08 213.208H220.552V211.624H228.04L227 212.216C226.968 211.619 226.824 211.107 226.568 210.68C226.323 210.253 225.987 209.928 225.56 209.704C225.144 209.469 224.648 209.352 224.072 209.352C223.464 209.352 222.931 209.475 222.472 209.72C222.024 209.965 221.672 210.312 221.416 210.76C221.16 211.197 221.032 211.72 221.032 212.328C221.032 213 221.181 213.581 221.48 214.072C221.789 214.563 222.221 214.941 222.776 215.208C223.341 215.464 224.008 215.592 224.776 215.592C225.469 215.592 226.179 215.485 226.904 215.272C227.629 215.048 228.269 214.739 228.824 214.344V215.848C228.269 216.275 227.592 216.611 226.792 216.856C226.003 217.101 225.197 217.224 224.376 217.224ZM237.378 205V216.056L236.434 215.144H245.474V217H235.266V205H237.378ZM246.838 207.88L247.878 208.072L248.918 207.88V217H246.838V207.88ZM247.878 206.744C247.484 206.744 247.158 206.637 246.902 206.424C246.646 206.2 246.518 205.912 246.518 205.56C246.518 205.208 246.646 204.925 246.902 204.712C247.158 204.488 247.484 204.376 247.878 204.376C248.284 204.376 248.609 204.488 248.854 204.712C249.11 204.925 249.238 205.208 249.238 205.56C249.238 205.912 249.11 206.2 248.854 206.424C248.609 206.637 248.284 206.744 247.878 206.744ZM256.608 206.072C255.829 206.072 255.248 206.237 254.864 206.568C254.49 206.899 254.304 207.437 254.304 208.184V217H252.224V208.376C252.224 207.597 252.368 206.915 252.656 206.328C252.954 205.741 253.408 205.283 254.016 204.952C254.634 204.621 255.418 204.456 256.368 204.456C256.826 204.456 257.232 204.493 257.584 204.568C257.936 204.643 258.282 204.739 258.624 204.856V206.488C258.314 206.339 257.994 206.232 257.664 206.168C257.333 206.104 256.981 206.072 256.608 206.072ZM250.288 210.168V208.568H258.448V210.168H250.288ZM264.236 217.224C263.18 217.224 262.241 217.027 261.42 216.632C260.598 216.227 259.953 215.667 259.484 214.952C259.014 214.237 258.78 213.405 258.78 212.456C258.78 211.517 258.998 210.696 259.436 209.992C259.884 209.277 260.497 208.723 261.276 208.328C262.065 207.923 262.966 207.72 263.98 207.72C264.993 207.72 265.868 207.949 266.604 208.408C267.35 208.856 267.926 209.491 268.332 210.312C268.737 211.133 268.94 212.099 268.94 213.208H260.412V211.624H267.9L266.86 212.216C266.828 211.619 266.684 211.107 266.428 210.68C266.182 210.253 265.846 209.928 265.42 209.704C265.004 209.469 264.508 209.352 263.932 209.352C263.324 209.352 262.79 209.475 262.332 209.72C261.884 209.965 261.532 210.312 261.276 210.76C261.02 211.197 260.892 211.72 260.892 212.328C260.892 213 261.041 213.581 261.34 214.072C261.649 214.563 262.081 214.941 262.636 215.208C263.201 215.464 263.868 215.592 264.636 215.592C265.329 215.592 266.038 215.485 266.764 215.272C267.489 215.048 268.129 214.739 268.684 214.344V215.848C268.129 216.275 267.452 216.611 266.652 216.856C265.862 217.101 265.057 217.224 264.236 217.224ZM199.216 229.976H201.328V241H199.216V229.976ZM194.256 229H206.288V230.856H194.256V229ZM209.704 241.224C208.648 241.224 207.71 241.027 206.888 240.632C206.067 240.227 205.422 239.667 204.952 238.952C204.483 238.237 204.248 237.405 204.248 236.456C204.248 235.517 204.467 234.696 204.904 233.992C205.352 233.277 205.966 232.723 206.744 232.328C207.534 231.923 208.435 231.72 209.448 231.72C210.462 231.72 211.336 231.949 212.072 232.408C212.819 232.856 213.395 233.491 213.8 234.312C214.206 235.133 214.408 236.099 214.408 237.208H205.88V235.624H213.368L212.328 236.216C212.296 235.619 212.152 235.107 211.896 234.68C211.651 234.253 211.315 233.928 210.888 233.704C210.472 233.469 209.976 233.352 209.4 233.352C208.792 233.352 208.259 233.475 207.8 233.72C207.352 233.965 207 234.312 206.744 234.76C206.488 235.197 206.36 235.72 206.36 236.328C206.36 237 206.51 237.581 206.808 238.072C207.118 238.563 207.55 238.941 208.104 239.208C208.67 239.464 209.336 239.592 210.104 239.592C210.798 239.592 211.507 239.485 212.232 239.272C212.958 239.048 213.598 238.739 214.152 238.344V239.848C213.598 240.275 212.92 240.611 212.12 240.856C211.331 241.101 210.526 241.224 209.704 241.224ZM226.12 237.432C226.013 238.179 225.72 238.84 225.24 239.416C224.76 239.981 224.146 240.424 223.4 240.744C222.653 241.064 221.821 241.224 220.904 241.224C219.858 241.224 218.936 241.027 218.136 240.632C217.346 240.227 216.728 239.667 216.28 238.952C215.832 238.237 215.608 237.411 215.608 236.472C215.608 235.533 215.832 234.707 216.28 233.992C216.728 233.277 217.346 232.723 218.136 232.328C218.936 231.923 219.858 231.72 220.904 231.72C221.821 231.72 222.653 231.88 223.4 232.2C224.146 232.52 224.76 232.968 225.24 233.544C225.72 234.109 226.013 234.771 226.12 235.528H224.024C223.874 234.845 223.517 234.312 222.952 233.928C222.386 233.544 221.704 233.352 220.904 233.352C220.264 233.352 219.704 233.48 219.224 233.736C218.744 233.981 218.37 234.339 218.104 234.808C217.848 235.267 217.72 235.821 217.72 236.472C217.72 237.112 217.848 237.667 218.104 238.136C218.37 238.605 218.744 238.968 219.224 239.224C219.704 239.469 220.264 239.592 220.904 239.592C221.714 239.592 222.402 239.395 222.968 239C223.533 238.605 223.885 238.083 224.024 237.432H226.12ZM227.698 228.68H229.778V241H227.698V228.68ZM233.378 231.72C234.231 231.72 234.956 231.891 235.554 232.232C236.151 232.573 236.604 233.064 236.914 233.704C237.234 234.333 237.394 235.096 237.394 235.992V241H235.314V236.328C235.314 235.379 235.09 234.664 234.642 234.184C234.204 233.693 233.559 233.448 232.706 233.448C232.119 233.448 231.602 233.581 231.154 233.848C230.716 234.104 230.375 234.467 230.13 234.936C229.895 235.405 229.778 235.955 229.778 236.584L229.042 236.184C229.138 235.245 229.383 234.445 229.778 233.784C230.172 233.123 230.679 232.616 231.298 232.264C231.916 231.901 232.61 231.72 233.378 231.72ZM243.953 229H246.065V241H243.953V229ZM253.713 229H255.825V241H253.713V229ZM245.089 234.024H254.721V235.88H245.089V234.024ZM261.959 241.224C261.127 241.224 260.417 241.053 259.831 240.712C259.255 240.371 258.812 239.88 258.503 239.24C258.193 238.6 258.039 237.837 258.039 236.952V231.944H260.119V236.632C260.119 237.571 260.332 238.285 260.759 238.776C261.196 239.256 261.82 239.496 262.631 239.496C263.217 239.496 263.719 239.368 264.135 239.112C264.561 238.856 264.892 238.493 265.127 238.024C265.361 237.544 265.479 236.989 265.479 236.36L266.199 236.76C266.113 237.688 265.879 238.488 265.495 239.16C265.111 239.821 264.615 240.333 264.007 240.696C263.399 241.048 262.716 241.224 261.959 241.224ZM266.007 241L265.479 237.736V231.944H267.559V238.056L268.087 241H266.007ZM269.885 228.68H271.965V235.064L271.645 235.656V237.336L271.965 238.008V241H269.885V228.68ZM271.133 236.472C271.336 235.512 271.672 234.68 272.141 233.976C272.611 233.261 273.187 232.707 273.869 232.312C274.563 231.917 275.331 231.72 276.173 231.72C277.059 231.72 277.843 231.923 278.525 232.328C279.208 232.723 279.741 233.277 280.125 233.992C280.509 234.696 280.701 235.523 280.701 236.472C280.701 237.411 280.509 238.237 280.125 238.952C279.741 239.667 279.208 240.227 278.525 240.632C277.843 241.027 277.059 241.224 276.173 241.224C275.331 241.224 274.563 241.027 273.869 240.632C273.187 240.237 272.611 239.683 272.141 238.968C271.672 238.253 271.336 237.421 271.133 236.472ZM278.589 236.472C278.589 235.864 278.461 235.331 278.205 234.872C277.96 234.403 277.619 234.04 277.181 233.784C276.744 233.517 276.243 233.384 275.677 233.384C275.112 233.384 274.579 233.517 274.077 233.784C273.587 234.04 273.155 234.403 272.781 234.872C272.408 235.331 272.104 235.864 271.869 236.472C272.104 237.08 272.408 237.619 272.781 238.088C273.155 238.547 273.587 238.909 274.077 239.176C274.579 239.432 275.112 239.56 275.677 239.56C276.243 239.56 276.744 239.432 277.181 239.176C277.619 238.909 277.96 238.547 278.205 238.088C278.461 237.619 278.589 237.08 278.589 236.472Z" fill="white"/>
<circle cx="238" cy="223" r="193" stroke="#FFFC31" stroke-opacity="0.32" stroke-width="10" stroke-dasharray="2 2"/>
<rect x="152" width="186" height="60" rx="12" fill="#F2F2F2"/>
<path d="M186.553 25.4688V34H185.082V25.4688H186.553ZM190.033 29.2012V30.3672H186.178V29.2012H190.033ZM190.52 25.4688V26.6406H186.178V25.4688H190.52ZM192.816 28.8672V34H191.404V27.6602H192.752L192.816 28.8672ZM194.756 27.6191L194.744 28.9316C194.658 28.916 194.564 28.9043 194.463 28.8965C194.365 28.8887 194.268 28.8848 194.17 28.8848C193.928 28.8848 193.715 28.9199 193.531 28.9902C193.348 29.0566 193.193 29.1543 193.068 29.2832C192.947 29.4082 192.854 29.5605 192.787 29.7402C192.721 29.9199 192.682 30.1211 192.67 30.3438L192.348 30.3672C192.348 29.9688 192.387 29.5996 192.465 29.2598C192.543 28.9199 192.66 28.6211 192.816 28.3633C192.977 28.1055 193.176 27.9043 193.414 27.7598C193.656 27.6152 193.936 27.543 194.252 27.543C194.338 27.543 194.43 27.5508 194.527 27.5664C194.629 27.582 194.705 27.5996 194.756 27.6191ZM195.219 30.9004V30.7656C195.219 30.3086 195.285 29.8848 195.418 29.4941C195.551 29.0996 195.742 28.7578 195.992 28.4688C196.246 28.1758 196.555 27.9492 196.918 27.7891C197.285 27.625 197.699 27.543 198.16 27.543C198.625 27.543 199.039 27.625 199.402 27.7891C199.77 27.9492 200.08 28.1758 200.334 28.4688C200.588 28.7578 200.781 29.0996 200.914 29.4941C201.047 29.8848 201.113 30.3086 201.113 30.7656V30.9004C201.113 31.3574 201.047 31.7812 200.914 32.1719C200.781 32.5625 200.588 32.9043 200.334 33.1973C200.08 33.4863 199.771 33.7129 199.408 33.877C199.045 34.0371 198.633 34.1172 198.172 34.1172C197.707 34.1172 197.291 34.0371 196.924 33.877C196.561 33.7129 196.252 33.4863 195.998 33.1973C195.744 32.9043 195.551 32.5625 195.418 32.1719C195.285 31.7812 195.219 31.3574 195.219 30.9004ZM196.631 30.7656V30.9004C196.631 31.1855 196.66 31.4551 196.719 31.709C196.777 31.9629 196.869 32.1855 196.994 32.377C197.119 32.5684 197.279 32.7188 197.475 32.8281C197.67 32.9375 197.902 32.9922 198.172 32.9922C198.434 32.9922 198.66 32.9375 198.852 32.8281C199.047 32.7188 199.207 32.5684 199.332 32.377C199.457 32.1855 199.549 31.9629 199.607 31.709C199.67 31.4551 199.701 31.1855 199.701 30.9004V30.7656C199.701 30.4844 199.67 30.2188 199.607 29.9688C199.549 29.7148 199.455 29.4902 199.326 29.2949C199.201 29.0996 199.041 28.9473 198.846 28.8379C198.654 28.7246 198.426 28.668 198.16 28.668C197.895 28.668 197.664 28.7246 197.469 28.8379C197.277 28.9473 197.119 29.0996 196.994 29.2949C196.869 29.4902 196.777 29.7148 196.719 29.9688C196.66 30.2188 196.631 30.4844 196.631 30.7656ZM203.697 29.0137V34H202.285V27.6602H203.615L203.697 29.0137ZM203.445 30.5957L202.988 30.5898C202.992 30.1406 203.055 29.7285 203.176 29.3535C203.301 28.9785 203.473 28.6562 203.691 28.3867C203.914 28.1172 204.18 27.9102 204.488 27.7656C204.797 27.6172 205.141 27.543 205.52 27.543C205.824 27.543 206.1 27.5859 206.346 27.6719C206.596 27.7539 206.809 27.8887 206.984 28.0762C207.164 28.2637 207.301 28.5078 207.395 28.8086C207.488 29.1055 207.535 29.4707 207.535 29.9043V34H206.117V29.8984C206.117 29.5938 206.072 29.3535 205.982 29.1777C205.896 28.998 205.77 28.8711 205.602 28.7969C205.438 28.7188 205.232 28.6797 204.986 28.6797C204.744 28.6797 204.527 28.7305 204.336 28.832C204.145 28.9336 203.982 29.0723 203.85 29.248C203.721 29.4238 203.621 29.627 203.551 29.8574C203.48 30.0879 203.445 30.334 203.445 30.5957ZM211.883 27.6602V28.6914H208.309V27.6602H211.883ZM209.34 26.1074H210.752V32.248C210.752 32.4434 210.779 32.5938 210.834 32.6992C210.893 32.8008 210.973 32.8691 211.074 32.9043C211.176 32.9395 211.295 32.957 211.432 32.957C211.529 32.957 211.623 32.9512 211.713 32.9395C211.803 32.9277 211.875 32.916 211.93 32.9043L211.936 33.9824C211.818 34.0176 211.682 34.0488 211.525 34.0762C211.373 34.1035 211.197 34.1172 210.998 34.1172C210.674 34.1172 210.387 34.0605 210.137 33.9473C209.887 33.8301 209.691 33.6406 209.551 33.3789C209.41 33.1172 209.34 32.7695 209.34 32.3359V26.1074ZM215.768 34.1172C215.299 34.1172 214.875 34.041 214.496 33.8887C214.121 33.7324 213.801 33.5156 213.535 33.2383C213.273 32.9609 213.072 32.6348 212.932 32.2598C212.791 31.8848 212.721 31.4805 212.721 31.0469V30.8125C212.721 30.3164 212.793 29.8672 212.938 29.4648C213.082 29.0625 213.283 28.7188 213.541 28.4336C213.799 28.1445 214.104 27.9238 214.455 27.7715C214.807 27.6191 215.188 27.543 215.598 27.543C216.051 27.543 216.447 27.6191 216.787 27.7715C217.127 27.9238 217.408 28.1387 217.631 28.416C217.857 28.6895 218.025 29.0156 218.135 29.3945C218.248 29.7734 218.305 30.1914 218.305 30.6484V31.252H213.406V30.2383H216.91V30.127C216.902 29.873 216.852 29.6348 216.758 29.4121C216.668 29.1895 216.529 29.0098 216.342 28.873C216.154 28.7363 215.904 28.668 215.592 28.668C215.357 28.668 215.148 28.7188 214.965 28.8203C214.785 28.918 214.635 29.0605 214.514 29.248C214.393 29.4355 214.299 29.6621 214.232 29.9277C214.17 30.1895 214.139 30.4844 214.139 30.8125V31.0469C214.139 31.3242 214.176 31.582 214.25 31.8203C214.328 32.0547 214.441 32.2598 214.59 32.4355C214.738 32.6113 214.918 32.75 215.129 32.8516C215.34 32.9492 215.58 32.998 215.85 32.998C216.189 32.998 216.492 32.9297 216.758 32.793C217.023 32.6562 217.254 32.4629 217.449 32.2129L218.193 32.9336C218.057 33.1328 217.879 33.3242 217.66 33.5078C217.441 33.6875 217.174 33.834 216.857 33.9473C216.545 34.0605 216.182 34.1172 215.768 34.1172ZM220.807 29.0137V34H219.395V27.6602H220.725L220.807 29.0137ZM220.555 30.5957L220.098 30.5898C220.102 30.1406 220.164 29.7285 220.285 29.3535C220.41 28.9785 220.582 28.6562 220.801 28.3867C221.023 28.1172 221.289 27.9102 221.598 27.7656C221.906 27.6172 222.25 27.543 222.629 27.543C222.934 27.543 223.209 27.5859 223.455 27.6719C223.705 27.7539 223.918 27.8887 224.094 28.0762C224.273 28.2637 224.41 28.5078 224.504 28.8086C224.598 29.1055 224.645 29.4707 224.645 29.9043V34H223.227V29.8984C223.227 29.5938 223.182 29.3535 223.092 29.1777C223.006 28.998 222.879 28.8711 222.711 28.7969C222.547 28.7188 222.342 28.6797 222.096 28.6797C221.854 28.6797 221.637 28.7305 221.445 28.832C221.254 28.9336 221.092 29.0723 220.959 29.248C220.83 29.4238 220.73 29.627 220.66 29.8574C220.59 30.0879 220.555 30.334 220.555 30.5957ZM229.953 32.6875V25H231.371V34H230.088L229.953 32.6875ZM225.828 30.9004V30.7773C225.828 30.2969 225.885 29.8594 225.998 29.4648C226.111 29.0664 226.275 28.7246 226.49 28.4395C226.705 28.1504 226.967 27.9297 227.275 27.7773C227.584 27.6211 227.932 27.543 228.318 27.543C228.701 27.543 229.037 27.6172 229.326 27.7656C229.615 27.9141 229.861 28.127 230.064 28.4043C230.268 28.6777 230.43 29.0059 230.551 29.3887C230.672 29.7676 230.758 30.1895 230.809 30.6543V31.0469C230.758 31.5 230.672 31.9141 230.551 32.2891C230.43 32.6641 230.268 32.9883 230.064 33.2617C229.861 33.5352 229.613 33.7461 229.32 33.8945C229.031 34.043 228.693 34.1172 228.307 34.1172C227.924 34.1172 227.578 34.0371 227.27 33.877C226.965 33.7168 226.705 33.4922 226.49 33.2031C226.275 32.9141 226.111 32.5742 225.998 32.1836C225.885 31.7891 225.828 31.3613 225.828 30.9004ZM227.24 30.7773V30.9004C227.24 31.1895 227.266 31.459 227.316 31.709C227.371 31.959 227.455 32.1797 227.568 32.3711C227.682 32.5586 227.828 32.707 228.008 32.8164C228.191 32.9219 228.41 32.9746 228.664 32.9746C228.984 32.9746 229.248 32.9043 229.455 32.7637C229.662 32.623 229.824 32.4336 229.941 32.1953C230.062 31.9531 230.145 31.6836 230.188 31.3867V30.3262C230.164 30.0957 230.115 29.8809 230.041 29.6816C229.971 29.4824 229.875 29.3086 229.754 29.1602C229.633 29.0078 229.482 28.8906 229.303 28.8086C229.127 28.7227 228.918 28.6797 228.676 28.6797C228.418 28.6797 228.199 28.7344 228.02 28.8438C227.84 28.9531 227.691 29.1035 227.574 29.2949C227.461 29.4863 227.377 29.709 227.322 29.9629C227.268 30.2168 227.24 30.4883 227.24 30.7773ZM238.455 34H236.633L236.645 32.834H238.455C238.982 32.834 239.424 32.7188 239.779 32.4883C240.139 32.2578 240.408 31.9277 240.588 31.498C240.771 31.0684 240.863 30.5566 240.863 29.9629V29.5C240.863 29.0391 240.811 28.6309 240.705 28.2754C240.604 27.9199 240.451 27.6211 240.248 27.3789C240.049 27.1367 239.803 26.9531 239.51 26.8281C239.221 26.7031 238.887 26.6406 238.508 26.6406H236.598V25.4688H238.508C239.074 25.4688 239.592 25.5645 240.061 25.7559C240.529 25.9434 240.934 26.2148 241.273 26.5703C241.617 26.9258 241.881 27.3516 242.064 27.8477C242.248 28.3438 242.34 28.8984 242.34 29.5117V29.9629C242.34 30.5762 242.248 31.1309 242.064 31.627C241.881 32.123 241.617 32.5488 241.273 32.9043C240.93 33.2559 240.52 33.5273 240.043 33.7188C239.57 33.9062 239.041 34 238.455 34ZM237.447 25.4688V34H235.977V25.4688H237.447ZM246.471 34.1172C246.002 34.1172 245.578 34.041 245.199 33.8887C244.824 33.7324 244.504 33.5156 244.238 33.2383C243.977 32.9609 243.775 32.6348 243.635 32.2598C243.494 31.8848 243.424 31.4805 243.424 31.0469V30.8125C243.424 30.3164 243.496 29.8672 243.641 29.4648C243.785 29.0625 243.986 28.7188 244.244 28.4336C244.502 28.1445 244.807 27.9238 245.158 27.7715C245.51 27.6191 245.891 27.543 246.301 27.543C246.754 27.543 247.15 27.6191 247.49 27.7715C247.83 27.9238 248.111 28.1387 248.334 28.416C248.561 28.6895 248.729 29.0156 248.838 29.3945C248.951 29.7734 249.008 30.1914 249.008 30.6484V31.252H244.109V30.2383H247.613V30.127C247.605 29.873 247.555 29.6348 247.461 29.4121C247.371 29.1895 247.232 29.0098 247.045 28.873C246.857 28.7363 246.607 28.668 246.295 28.668C246.061 28.668 245.852 28.7188 245.668 28.8203C245.488 28.918 245.338 29.0605 245.217 29.248C245.096 29.4355 245.002 29.6621 244.936 29.9277C244.873 30.1895 244.842 30.4844 244.842 30.8125V31.0469C244.842 31.3242 244.879 31.582 244.953 31.8203C245.031 32.0547 245.145 32.2598 245.293 32.4355C245.441 32.6113 245.621 32.75 245.832 32.8516C246.043 32.9492 246.283 32.998 246.553 32.998C246.893 32.998 247.195 32.9297 247.461 32.793C247.727 32.6562 247.957 32.4629 248.152 32.2129L248.896 32.9336C248.76 33.1328 248.582 33.3242 248.363 33.5078C248.145 33.6875 247.877 33.834 247.561 33.9473C247.248 34.0605 246.885 34.1172 246.471 34.1172ZM252.09 32.8809L253.643 27.6602H255.107L252.904 34H251.99L252.09 32.8809ZM250.9 27.6602L252.482 32.9043L252.559 34H251.645L249.43 27.6602H250.9ZM258.693 34.1172C258.225 34.1172 257.801 34.041 257.422 33.8887C257.047 33.7324 256.727 33.5156 256.461 33.2383C256.199 32.9609 255.998 32.6348 255.857 32.2598C255.717 31.8848 255.646 31.4805 255.646 31.0469V30.8125C255.646 30.3164 255.719 29.8672 255.863 29.4648C256.008 29.0625 256.209 28.7188 256.467 28.4336C256.725 28.1445 257.029 27.9238 257.381 27.7715C257.732 27.6191 258.113 27.543 258.523 27.543C258.977 27.543 259.373 27.6191 259.713 27.7715C260.053 27.9238 260.334 28.1387 260.557 28.416C260.783 28.6895 260.951 29.0156 261.061 29.3945C261.174 29.7734 261.23 30.1914 261.23 30.6484V31.252H256.332V30.2383H259.836V30.127C259.828 29.873 259.777 29.6348 259.684 29.4121C259.594 29.1895 259.455 29.0098 259.268 28.873C259.08 28.7363 258.83 28.668 258.518 28.668C258.283 28.668 258.074 28.7188 257.891 28.8203C257.711 28.918 257.561 29.0605 257.439 29.248C257.318 29.4355 257.225 29.6621 257.158 29.9277C257.096 30.1895 257.064 30.4844 257.064 30.8125V31.0469C257.064 31.3242 257.102 31.582 257.176 31.8203C257.254 32.0547 257.367 32.2598 257.516 32.4355C257.664 32.6113 257.844 32.75 258.055 32.8516C258.266 32.9492 258.506 32.998 258.775 32.998C259.115 32.998 259.418 32.9297 259.684 32.793C259.949 32.6562 260.18 32.4629 260.375 32.2129L261.119 32.9336C260.982 33.1328 260.805 33.3242 260.586 33.5078C260.367 33.6875 260.1 33.834 259.783 33.9473C259.471 34.0605 259.107 34.1172 258.693 34.1172ZM263.844 25V34H262.426V25H263.844ZM265.121 30.9004V30.7656C265.121 30.3086 265.188 29.8848 265.32 29.4941C265.453 29.0996 265.645 28.7578 265.895 28.4688C266.148 28.1758 266.457 27.9492 266.82 27.7891C267.188 27.625 267.602 27.543 268.062 27.543C268.527 27.543 268.941 27.625 269.305 27.7891C269.672 27.9492 269.982 28.1758 270.236 28.4688C270.49 28.7578 270.684 29.0996 270.816 29.4941C270.949 29.8848 271.016 30.3086 271.016 30.7656V30.9004C271.016 31.3574 270.949 31.7812 270.816 32.1719C270.684 32.5625 270.49 32.9043 270.236 33.1973C269.982 33.4863 269.674 33.7129 269.311 33.877C268.947 34.0371 268.535 34.1172 268.074 34.1172C267.609 34.1172 267.193 34.0371 266.826 33.877C266.463 33.7129 266.154 33.4863 265.9 33.1973C265.646 32.9043 265.453 32.5625 265.32 32.1719C265.188 31.7812 265.121 31.3574 265.121 30.9004ZM266.533 30.7656V30.9004C266.533 31.1855 266.562 31.4551 266.621 31.709C266.68 31.9629 266.771 32.1855 266.896 32.377C267.021 32.5684 267.182 32.7188 267.377 32.8281C267.572 32.9375 267.805 32.9922 268.074 32.9922C268.336 32.9922 268.562 32.9375 268.754 32.8281C268.949 32.7188 269.109 32.5684 269.234 32.377C269.359 32.1855 269.451 31.9629 269.51 31.709C269.572 31.4551 269.604 31.1855 269.604 30.9004V30.7656C269.604 30.4844 269.572 30.2188 269.51 29.9688C269.451 29.7148 269.357 29.4902 269.229 29.2949C269.104 29.0996 268.943 28.9473 268.748 28.8379C268.557 28.7246 268.328 28.668 268.062 28.668C267.797 28.668 267.566 28.7246 267.371 28.8379C267.18 28.9473 267.021 29.0996 266.896 29.2949C266.771 29.4902 266.68 29.7148 266.621 29.9688C266.562 30.2188 266.533 30.4844 266.533 30.7656ZM273.617 28.8789V36.4375H272.205V27.6602H273.506L273.617 28.8789ZM277.748 30.7715V30.8945C277.748 31.3555 277.693 31.7832 277.584 32.1777C277.479 32.5684 277.32 32.9102 277.109 33.2031C276.902 33.4922 276.646 33.7168 276.342 33.877C276.037 34.0371 275.686 34.1172 275.287 34.1172C274.893 34.1172 274.547 34.0449 274.25 33.9004C273.957 33.752 273.709 33.543 273.506 33.2734C273.303 33.0039 273.139 32.6875 273.014 32.3242C272.893 31.957 272.807 31.5547 272.756 31.1172V30.6426C272.807 30.1777 272.893 29.7559 273.014 29.377C273.139 28.998 273.303 28.6719 273.506 28.3984C273.709 28.125 273.957 27.9141 274.25 27.7656C274.543 27.6172 274.885 27.543 275.275 27.543C275.674 27.543 276.027 27.6211 276.336 27.7773C276.645 27.9297 276.904 28.1484 277.115 28.4336C277.326 28.7148 277.484 29.0547 277.59 29.4531C277.695 29.8477 277.748 30.2871 277.748 30.7715ZM276.336 30.8945V30.7715C276.336 30.4785 276.309 30.207 276.254 29.957C276.199 29.7031 276.113 29.4805 275.996 29.2891C275.879 29.0977 275.729 28.9492 275.545 28.8438C275.365 28.7344 275.148 28.6797 274.895 28.6797C274.645 28.6797 274.43 28.7227 274.25 28.8086C274.07 28.8906 273.92 29.0059 273.799 29.1543C273.678 29.3027 273.584 29.4766 273.518 29.6758C273.451 29.8711 273.404 30.084 273.377 30.3145V31.4512C273.424 31.7324 273.504 31.9902 273.617 32.2246C273.73 32.459 273.891 32.6465 274.098 32.7871C274.309 32.9238 274.578 32.9922 274.906 32.9922C275.16 32.9922 275.377 32.9375 275.557 32.8281C275.736 32.7188 275.883 32.5684 275.996 32.377C276.113 32.1816 276.199 31.957 276.254 31.7031C276.309 31.4492 276.336 31.1797 276.336 30.8945ZM280.361 28.9492V34H278.949V27.6602H280.279L280.361 28.9492ZM280.133 30.5957L279.652 30.5898C279.652 30.1523 279.707 29.748 279.816 29.377C279.926 29.0059 280.086 28.6836 280.297 28.4102C280.508 28.1328 280.77 27.9199 281.082 27.7715C281.398 27.6191 281.764 27.543 282.178 27.543C282.467 27.543 282.73 27.5859 282.969 27.6719C283.211 27.7539 283.42 27.8848 283.596 28.0645C283.775 28.2441 283.912 28.4746 284.006 28.7559C284.104 29.0371 284.152 29.377 284.152 29.7754V34H282.74V29.8984C282.74 29.5898 282.693 29.3477 282.6 29.1719C282.51 28.9961 282.379 28.8711 282.207 28.7969C282.039 28.7188 281.838 28.6797 281.604 28.6797C281.338 28.6797 281.111 28.7305 280.924 28.832C280.74 28.9336 280.59 29.0723 280.473 29.248C280.355 29.4238 280.27 29.627 280.215 29.8574C280.16 30.0879 280.133 30.334 280.133 30.5957ZM284.064 30.2207L283.402 30.3672C283.402 29.9844 283.455 29.623 283.561 29.2832C283.67 28.9395 283.828 28.6387 284.035 28.3809C284.246 28.1191 284.506 27.9141 284.814 27.7656C285.123 27.6172 285.477 27.543 285.875 27.543C286.199 27.543 286.488 27.5879 286.742 27.6777C287 27.7637 287.219 27.9004 287.398 28.0879C287.578 28.2754 287.715 28.5195 287.809 28.8203C287.902 29.1172 287.949 29.4766 287.949 29.8984V34H286.531V29.8926C286.531 29.5723 286.484 29.3242 286.391 29.1484C286.301 28.9727 286.172 28.8516 286.004 28.7852C285.836 28.7148 285.635 28.6797 285.4 28.6797C285.182 28.6797 284.988 28.7207 284.82 28.8027C284.656 28.8809 284.518 28.9922 284.404 29.1367C284.291 29.2773 284.205 29.4395 284.146 29.623C284.092 29.8066 284.064 30.0059 284.064 30.2207ZM292.197 34.1172C291.729 34.1172 291.305 34.041 290.926 33.8887C290.551 33.7324 290.23 33.5156 289.965 33.2383C289.703 32.9609 289.502 32.6348 289.361 32.2598C289.221 31.8848 289.15 31.4805 289.15 31.0469V30.8125C289.15 30.3164 289.223 29.8672 289.367 29.4648C289.512 29.0625 289.713 28.7188 289.971 28.4336C290.229 28.1445 290.533 27.9238 290.885 27.7715C291.236 27.6191 291.617 27.543 292.027 27.543C292.48 27.543 292.877 27.6191 293.217 27.7715C293.557 27.9238 293.838 28.1387 294.061 28.416C294.287 28.6895 294.455 29.0156 294.564 29.3945C294.678 29.7734 294.734 30.1914 294.734 30.6484V31.252H289.836V30.2383H293.34V30.127C293.332 29.873 293.281 29.6348 293.188 29.4121C293.098 29.1895 292.959 29.0098 292.771 28.873C292.584 28.7363 292.334 28.668 292.021 28.668C291.787 28.668 291.578 28.7188 291.395 28.8203C291.215 28.918 291.064 29.0605 290.943 29.248C290.822 29.4355 290.729 29.6621 290.662 29.9277C290.6 30.1895 290.568 30.4844 290.568 30.8125V31.0469C290.568 31.3242 290.605 31.582 290.68 31.8203C290.758 32.0547 290.871 32.2598 291.02 32.4355C291.168 32.6113 291.348 32.75 291.559 32.8516C291.77 32.9492 292.01 32.998 292.279 32.998C292.619 32.998 292.922 32.9297 293.188 32.793C293.453 32.6562 293.684 32.4629 293.879 32.2129L294.623 32.9336C294.486 33.1328 294.309 33.3242 294.09 33.5078C293.871 33.6875 293.604 33.834 293.287 33.9473C292.975 34.0605 292.611 34.1172 292.197 34.1172ZM297.236 29.0137V34H295.824V27.6602H297.154L297.236 29.0137ZM296.984 30.5957L296.527 30.5898C296.531 30.1406 296.594 29.7285 296.715 29.3535C296.84 28.9785 297.012 28.6562 297.23 28.3867C297.453 28.1172 297.719 27.9102 298.027 27.7656C298.336 27.6172 298.68 27.543 299.059 27.543C299.363 27.543 299.639 27.5859 299.885 27.6719C300.135 27.7539 300.348 27.8887 300.523 28.0762C300.703 28.2637 300.84 28.5078 300.934 28.8086C301.027 29.1055 301.074 29.4707 301.074 29.9043V34H299.656V29.8984C299.656 29.5938 299.611 29.3535 299.521 29.1777C299.436 28.998 299.309 28.8711 299.141 28.7969C298.977 28.7188 298.771 28.6797 298.525 28.6797C298.283 28.6797 298.066 28.7305 297.875 28.832C297.684 28.9336 297.521 29.0723 297.389 29.248C297.26 29.4238 297.16 29.627 297.09 29.8574C297.02 30.0879 296.984 30.334 296.984 30.5957ZM305.422 27.6602V28.6914H301.848V27.6602H305.422ZM302.879 26.1074H304.291V32.248C304.291 32.4434 304.318 32.5938 304.373 32.6992C304.432 32.8008 304.512 32.8691 304.613 32.9043C304.715 32.9395 304.834 32.957 304.971 32.957C305.068 32.957 305.162 32.9512 305.252 32.9395C305.342 32.9277 305.414 32.916 305.469 32.9043L305.475 33.9824C305.357 34.0176 305.221 34.0488 305.064 34.0762C304.912 34.1035 304.736 34.1172 304.537 34.1172C304.213 34.1172 303.926 34.0605 303.676 33.9473C303.426 33.8301 303.23 33.6406 303.09 33.3789C302.949 33.1172 302.879 32.7695 302.879 32.3359V26.1074Z" fill="#080808"/>
<rect y="177" width="136" height="60" rx="12" fill="#F2F2F2"/>
<path d="M37.9766 202.469H39.4414V208.17C39.4414 208.818 39.3008 209.361 39.0195 209.799C38.7383 210.236 38.3555 210.566 37.8711 210.789C37.3906 211.008 36.8535 211.117 36.2598 211.117C35.6465 211.117 35.0996 211.008 34.6191 210.789C34.1387 210.566 33.7598 210.236 33.4824 209.799C33.209 209.361 33.0723 208.818 33.0723 208.17V202.469H34.5371V208.17C34.5371 208.58 34.6074 208.918 34.748 209.184C34.8887 209.445 35.0879 209.639 35.3457 209.764C35.6035 209.889 35.9082 209.951 36.2598 209.951C36.6113 209.951 36.9141 209.889 37.168 209.764C37.4258 209.639 37.625 209.445 37.7656 209.184C37.9062 208.918 37.9766 208.58 37.9766 208.17V202.469ZM42.6113 202.469V211H41.1406V202.469H42.6113ZM48.0078 202.469L44.6855 211.732H43.5781L46.9062 202.469H48.0078ZM53.9141 202.469H55.3789V208.17C55.3789 208.818 55.2383 209.361 54.957 209.799C54.6758 210.236 54.293 210.566 53.8086 210.789C53.3281 211.008 52.791 211.117 52.1973 211.117C51.584 211.117 51.0371 211.008 50.5566 210.789C50.0762 210.566 49.6973 210.236 49.4199 209.799C49.1465 209.361 49.0098 208.818 49.0098 208.17V202.469H50.4746V208.17C50.4746 208.58 50.5449 208.918 50.6855 209.184C50.8262 209.445 51.0254 209.639 51.2832 209.764C51.541 209.889 51.8457 209.951 52.1973 209.951C52.5488 209.951 52.8516 209.889 53.1055 209.764C53.3633 209.639 53.5625 209.445 53.7031 209.184C53.8438 208.918 53.9141 208.58 53.9141 208.17V202.469ZM58.0977 202.469L59.9082 205.58L61.7188 202.469H63.4121L60.834 206.693L63.4766 211H61.7656L59.9082 207.83L58.0508 211H56.334L58.9824 206.693L56.3984 202.469H58.0977ZM70.0273 211H68.2051L68.2168 209.834H70.0273C70.5547 209.834 70.9961 209.719 71.3516 209.488C71.7109 209.258 71.9805 208.928 72.1602 208.498C72.3438 208.068 72.4355 207.557 72.4355 206.963V206.5C72.4355 206.039 72.3828 205.631 72.2773 205.275C72.1758 204.92 72.0234 204.621 71.8203 204.379C71.6211 204.137 71.375 203.953 71.082 203.828C70.793 203.703 70.459 203.641 70.0801 203.641H68.1699V202.469H70.0801C70.6465 202.469 71.1641 202.564 71.6328 202.756C72.1016 202.943 72.5059 203.215 72.8457 203.57C73.1895 203.926 73.4531 204.352 73.6367 204.848C73.8203 205.344 73.9121 205.898 73.9121 206.512V206.963C73.9121 207.576 73.8203 208.131 73.6367 208.627C73.4531 209.123 73.1895 209.549 72.8457 209.904C72.502 210.256 72.0918 210.527 71.6152 210.719C71.1426 210.906 70.6133 211 70.0273 211ZM69.0195 202.469V211H67.5488V202.469H69.0195ZM78.043 211.117C77.5742 211.117 77.1504 211.041 76.7715 210.889C76.3965 210.732 76.0762 210.516 75.8105 210.238C75.5488 209.961 75.3477 209.635 75.207 209.26C75.0664 208.885 74.9961 208.48 74.9961 208.047V207.812C74.9961 207.316 75.0684 206.867 75.2129 206.465C75.3574 206.062 75.5586 205.719 75.8164 205.434C76.0742 205.145 76.3789 204.924 76.7305 204.771C77.082 204.619 77.4629 204.543 77.873 204.543C78.3262 204.543 78.7227 204.619 79.0625 204.771C79.4023 204.924 79.6836 205.139 79.9062 205.416C80.1328 205.689 80.3008 206.016 80.4102 206.395C80.5234 206.773 80.5801 207.191 80.5801 207.648V208.252H75.6816V207.238H79.1855V207.127C79.1777 206.873 79.127 206.635 79.0332 206.412C78.9434 206.189 78.8047 206.01 78.6172 205.873C78.4297 205.736 78.1797 205.668 77.8672 205.668C77.6328 205.668 77.4238 205.719 77.2402 205.82C77.0605 205.918 76.9102 206.061 76.7891 206.248C76.668 206.436 76.5742 206.662 76.5078 206.928C76.4453 207.189 76.4141 207.484 76.4141 207.812V208.047C76.4141 208.324 76.4512 208.582 76.5254 208.82C76.6035 209.055 76.7168 209.26 76.8652 209.436C77.0137 209.611 77.1934 209.75 77.4043 209.852C77.6152 209.949 77.8555 209.998 78.125 209.998C78.4648 209.998 78.7676 209.93 79.0332 209.793C79.2988 209.656 79.5293 209.463 79.7246 209.213L80.4688 209.934C80.332 210.133 80.1543 210.324 79.9355 210.508C79.7168 210.688 79.4492 210.834 79.1328 210.947C78.8203 211.061 78.457 211.117 78.043 211.117ZM85.2383 209.283C85.2383 209.143 85.2031 209.016 85.1328 208.902C85.0625 208.785 84.9277 208.68 84.7285 208.586C84.5332 208.492 84.2441 208.406 83.8613 208.328C83.5254 208.254 83.2168 208.166 82.9355 208.064C82.6582 207.959 82.4199 207.832 82.2207 207.684C82.0215 207.535 81.8672 207.359 81.7578 207.156C81.6484 206.953 81.5938 206.719 81.5938 206.453C81.5938 206.195 81.6504 205.951 81.7637 205.721C81.877 205.49 82.0391 205.287 82.25 205.111C82.4609 204.936 82.7168 204.797 83.0176 204.695C83.3223 204.594 83.6621 204.543 84.0371 204.543C84.5684 204.543 85.0234 204.633 85.4023 204.812C85.7852 204.988 86.0781 205.229 86.2812 205.533C86.4844 205.834 86.5859 206.174 86.5859 206.553H85.1738C85.1738 206.385 85.1309 206.229 85.0449 206.084C84.9629 205.936 84.8379 205.816 84.6699 205.727C84.502 205.633 84.291 205.586 84.0371 205.586C83.7949 205.586 83.5938 205.625 83.4336 205.703C83.2773 205.777 83.1602 205.875 83.082 205.996C83.0078 206.117 82.9707 206.25 82.9707 206.395C82.9707 206.5 82.9902 206.596 83.0293 206.682C83.0723 206.764 83.1426 206.84 83.2402 206.91C83.3379 206.977 83.4707 207.039 83.6387 207.098C83.8105 207.156 84.0254 207.213 84.2832 207.268C84.7676 207.369 85.1836 207.5 85.5312 207.66C85.8828 207.816 86.1523 208.02 86.3398 208.27C86.5273 208.516 86.6211 208.828 86.6211 209.207C86.6211 209.488 86.5605 209.746 86.4395 209.98C86.3223 210.211 86.1504 210.412 85.9238 210.584C85.6973 210.752 85.4258 210.883 85.1094 210.977C84.7969 211.07 84.4453 211.117 84.0547 211.117C83.4805 211.117 82.9941 211.016 82.5957 210.812C82.1973 210.605 81.8945 210.342 81.6875 210.021C81.4844 209.697 81.3828 209.361 81.3828 209.014H82.748C82.7637 209.275 82.8359 209.484 82.9648 209.641C83.0977 209.793 83.2617 209.904 83.457 209.975C83.6562 210.041 83.8613 210.074 84.0723 210.074C84.3262 210.074 84.5391 210.041 84.7109 209.975C84.8828 209.904 85.0137 209.811 85.1035 209.693C85.1934 209.572 85.2383 209.436 85.2383 209.283ZM89.3691 204.66V211H87.9512V204.66H89.3691ZM87.8574 202.996C87.8574 202.781 87.9277 202.604 88.0684 202.463C88.2129 202.318 88.4121 202.246 88.666 202.246C88.916 202.246 89.1133 202.318 89.2578 202.463C89.4023 202.604 89.4746 202.781 89.4746 202.996C89.4746 203.207 89.4023 203.383 89.2578 203.523C89.1133 203.664 88.916 203.734 88.666 203.734C88.4121 203.734 88.2129 203.664 88.0684 203.523C87.9277 203.383 87.8574 203.207 87.8574 202.996ZM94.9766 204.66H96.2598V210.824C96.2598 211.395 96.1387 211.879 95.8965 212.277C95.6543 212.676 95.3164 212.979 94.8828 213.186C94.4492 213.396 93.9473 213.502 93.377 213.502C93.1348 213.502 92.8652 213.467 92.5684 213.396C92.2754 213.326 91.9902 213.213 91.7129 213.057C91.4395 212.904 91.2109 212.703 91.0273 212.453L91.6895 211.621C91.916 211.891 92.166 212.088 92.4395 212.213C92.7129 212.338 93 212.4 93.3008 212.4C93.625 212.4 93.9004 212.34 94.127 212.219C94.3574 212.102 94.5352 211.928 94.6602 211.697C94.7852 211.467 94.8477 211.186 94.8477 210.854V206.096L94.9766 204.66ZM90.6699 207.9V207.777C90.6699 207.297 90.7285 206.859 90.8457 206.465C90.9629 206.066 91.1309 205.725 91.3496 205.439C91.5684 205.15 91.834 204.93 92.1465 204.777C92.459 204.621 92.8125 204.543 93.207 204.543C93.6172 204.543 93.9668 204.617 94.2559 204.766C94.5488 204.914 94.793 205.127 94.9883 205.404C95.1836 205.678 95.3359 206.006 95.4453 206.389C95.5586 206.768 95.6426 207.189 95.6973 207.654V208.047C95.6465 208.5 95.5605 208.914 95.4395 209.289C95.3184 209.664 95.1582 209.988 94.959 210.262C94.7598 210.535 94.5137 210.746 94.2207 210.895C93.9316 211.043 93.5898 211.117 93.1953 211.117C92.8086 211.117 92.459 211.037 92.1465 210.877C91.8379 210.717 91.5723 210.492 91.3496 210.203C91.1309 209.914 90.9629 209.574 90.8457 209.184C90.7285 208.789 90.6699 208.361 90.6699 207.9ZM92.082 207.777V207.9C92.082 208.189 92.1094 208.459 92.1641 208.709C92.2227 208.959 92.3105 209.18 92.4277 209.371C92.5488 209.559 92.7012 209.707 92.8848 209.816C93.0723 209.922 93.293 209.975 93.5469 209.975C93.8789 209.975 94.1504 209.904 94.3613 209.764C94.5762 209.623 94.7402 209.434 94.8535 209.195C94.9707 208.953 95.0527 208.684 95.0996 208.387V207.326C95.0762 207.096 95.0273 206.881 94.9531 206.682C94.8828 206.482 94.7871 206.309 94.666 206.16C94.5449 206.008 94.3926 205.891 94.209 205.809C94.0254 205.723 93.8086 205.68 93.5586 205.68C93.3047 205.68 93.084 205.734 92.8965 205.844C92.709 205.953 92.5547 206.104 92.4336 206.295C92.3164 206.486 92.2285 206.709 92.1699 206.963C92.1113 207.217 92.082 207.488 92.082 207.777ZM99.125 206.014V211H97.7129V204.66H99.043L99.125 206.014ZM98.873 207.596L98.416 207.59C98.4199 207.141 98.4824 206.729 98.6035 206.354C98.7285 205.979 98.9004 205.656 99.1191 205.387C99.3418 205.117 99.6074 204.91 99.916 204.766C100.225 204.617 100.568 204.543 100.947 204.543C101.252 204.543 101.527 204.586 101.773 204.672C102.023 204.754 102.236 204.889 102.412 205.076C102.592 205.264 102.729 205.508 102.822 205.809C102.916 206.105 102.963 206.471 102.963 206.904V211H101.545V206.898C101.545 206.594 101.5 206.354 101.41 206.178C101.324 205.998 101.197 205.871 101.029 205.797C100.865 205.719 100.66 205.68 100.414 205.68C100.172 205.68 99.9551 205.73 99.7637 205.832C99.5723 205.934 99.4102 206.072 99.2773 206.248C99.1484 206.424 99.0488 206.627 98.9785 206.857C98.9082 207.088 98.873 207.334 98.873 207.596Z" fill="#080808"/>
<rect x="158" y="391" width="158" height="60" rx="12" fill="#F2F2F2"/>
<path d="M196.301 422.223H197.766C197.719 422.781 197.562 423.279 197.297 423.717C197.031 424.15 196.658 424.492 196.178 424.742C195.697 424.992 195.113 425.117 194.426 425.117C193.898 425.117 193.424 425.023 193.002 424.836C192.58 424.645 192.219 424.375 191.918 424.027C191.617 423.676 191.387 423.252 191.227 422.756C191.07 422.26 190.992 421.705 190.992 421.092V420.383C190.992 419.77 191.072 419.215 191.232 418.719C191.396 418.223 191.631 417.799 191.936 417.447C192.24 417.092 192.605 416.82 193.031 416.633C193.461 416.445 193.943 416.352 194.479 416.352C195.158 416.352 195.732 416.477 196.201 416.727C196.67 416.977 197.033 417.322 197.291 417.764C197.553 418.205 197.713 418.711 197.771 419.281H196.307C196.268 418.914 196.182 418.6 196.049 418.338C195.92 418.076 195.729 417.877 195.475 417.74C195.221 417.6 194.889 417.529 194.479 417.529C194.143 417.529 193.85 417.592 193.6 417.717C193.35 417.842 193.141 418.025 192.973 418.268C192.805 418.51 192.678 418.809 192.592 419.164C192.51 419.516 192.469 419.918 192.469 420.371V421.092C192.469 421.521 192.506 421.912 192.58 422.264C192.658 422.611 192.775 422.91 192.932 423.16C193.092 423.41 193.295 423.604 193.541 423.74C193.787 423.877 194.082 423.945 194.426 423.945C194.844 423.945 195.182 423.879 195.439 423.746C195.701 423.613 195.898 423.42 196.031 423.166C196.168 422.908 196.258 422.594 196.301 422.223ZM200.473 416V425H199.055V416H200.473ZM201.75 421.9V421.766C201.75 421.309 201.816 420.885 201.949 420.494C202.082 420.1 202.273 419.758 202.523 419.469C202.777 419.176 203.086 418.949 203.449 418.789C203.816 418.625 204.23 418.543 204.691 418.543C205.156 418.543 205.57 418.625 205.934 418.789C206.301 418.949 206.611 419.176 206.865 419.469C207.119 419.758 207.312 420.1 207.445 420.494C207.578 420.885 207.645 421.309 207.645 421.766V421.9C207.645 422.357 207.578 422.781 207.445 423.172C207.312 423.562 207.119 423.904 206.865 424.197C206.611 424.486 206.303 424.713 205.939 424.877C205.576 425.037 205.164 425.117 204.703 425.117C204.238 425.117 203.822 425.037 203.455 424.877C203.092 424.713 202.783 424.486 202.529 424.197C202.275 423.904 202.082 423.562 201.949 423.172C201.816 422.781 201.75 422.357 201.75 421.9ZM203.162 421.766V421.9C203.162 422.186 203.191 422.455 203.25 422.709C203.309 422.963 203.4 423.186 203.525 423.377C203.65 423.568 203.811 423.719 204.006 423.828C204.201 423.938 204.434 423.992 204.703 423.992C204.965 423.992 205.191 423.938 205.383 423.828C205.578 423.719 205.738 423.568 205.863 423.377C205.988 423.186 206.08 422.963 206.139 422.709C206.201 422.455 206.232 422.186 206.232 421.9V421.766C206.232 421.484 206.201 421.219 206.139 420.969C206.08 420.715 205.986 420.49 205.857 420.295C205.732 420.1 205.572 419.947 205.377 419.838C205.186 419.725 204.957 419.668 204.691 419.668C204.426 419.668 204.195 419.725 204 419.838C203.809 419.947 203.65 420.1 203.525 420.295C203.4 420.49 203.309 420.715 203.25 420.969C203.191 421.219 203.162 421.484 203.162 421.766ZM212.643 423.506V418.66H214.061V425H212.725L212.643 423.506ZM212.842 422.188L213.316 422.176C213.316 422.602 213.27 422.994 213.176 423.354C213.082 423.709 212.938 424.02 212.742 424.285C212.547 424.547 212.297 424.752 211.992 424.9C211.688 425.045 211.322 425.117 210.896 425.117C210.588 425.117 210.305 425.072 210.047 424.982C209.789 424.893 209.566 424.754 209.379 424.566C209.195 424.379 209.053 424.135 208.951 423.834C208.85 423.533 208.799 423.174 208.799 422.756V418.66H210.211V422.768C210.211 422.998 210.238 423.191 210.293 423.348C210.348 423.5 210.422 423.623 210.516 423.717C210.609 423.811 210.719 423.877 210.844 423.916C210.969 423.955 211.102 423.975 211.242 423.975C211.645 423.975 211.961 423.896 212.191 423.74C212.426 423.58 212.592 423.365 212.689 423.096C212.791 422.826 212.842 422.523 212.842 422.188ZM219.375 423.688V416H220.793V425H219.51L219.375 423.688ZM215.25 421.9V421.777C215.25 421.297 215.307 420.859 215.42 420.465C215.533 420.066 215.697 419.725 215.912 419.439C216.127 419.15 216.389 418.93 216.697 418.777C217.006 418.621 217.354 418.543 217.74 418.543C218.123 418.543 218.459 418.617 218.748 418.766C219.037 418.914 219.283 419.127 219.486 419.404C219.689 419.678 219.852 420.006 219.973 420.389C220.094 420.768 220.18 421.189 220.23 421.654V422.047C220.18 422.5 220.094 422.914 219.973 423.289C219.852 423.664 219.689 423.988 219.486 424.262C219.283 424.535 219.035 424.746 218.742 424.895C218.453 425.043 218.115 425.117 217.729 425.117C217.346 425.117 217 425.037 216.691 424.877C216.387 424.717 216.127 424.492 215.912 424.203C215.697 423.914 215.533 423.574 215.42 423.184C215.307 422.789 215.25 422.361 215.25 421.9ZM216.662 421.777V421.9C216.662 422.189 216.688 422.459 216.738 422.709C216.793 422.959 216.877 423.18 216.99 423.371C217.104 423.559 217.25 423.707 217.43 423.816C217.613 423.922 217.832 423.975 218.086 423.975C218.406 423.975 218.67 423.904 218.877 423.764C219.084 423.623 219.246 423.434 219.363 423.195C219.484 422.953 219.566 422.684 219.609 422.387V421.326C219.586 421.096 219.537 420.881 219.463 420.682C219.393 420.482 219.297 420.309 219.176 420.16C219.055 420.008 218.904 419.891 218.725 419.809C218.549 419.723 218.34 419.68 218.098 419.68C217.84 419.68 217.621 419.734 217.441 419.844C217.262 419.953 217.113 420.104 216.996 420.295C216.883 420.486 216.799 420.709 216.744 420.963C216.689 421.217 216.662 421.488 216.662 421.777ZM230.438 422.223H231.902C231.855 422.781 231.699 423.279 231.434 423.717C231.168 424.15 230.795 424.492 230.314 424.742C229.834 424.992 229.25 425.117 228.562 425.117C228.035 425.117 227.561 425.023 227.139 424.836C226.717 424.645 226.355 424.375 226.055 424.027C225.754 423.676 225.523 423.252 225.363 422.756C225.207 422.26 225.129 421.705 225.129 421.092V420.383C225.129 419.77 225.209 419.215 225.369 418.719C225.533 418.223 225.768 417.799 226.072 417.447C226.377 417.092 226.742 416.82 227.168 416.633C227.598 416.445 228.08 416.352 228.615 416.352C229.295 416.352 229.869 416.477 230.338 416.727C230.807 416.977 231.17 417.322 231.428 417.764C231.689 418.205 231.85 418.711 231.908 419.281H230.443C230.404 418.914 230.318 418.6 230.186 418.338C230.057 418.076 229.865 417.877 229.611 417.74C229.357 417.6 229.025 417.529 228.615 417.529C228.279 417.529 227.986 417.592 227.736 417.717C227.486 417.842 227.277 418.025 227.109 418.268C226.941 418.51 226.814 418.809 226.729 419.164C226.646 419.516 226.605 419.918 226.605 420.371V421.092C226.605 421.521 226.643 421.912 226.717 422.264C226.795 422.611 226.912 422.91 227.068 423.16C227.229 423.41 227.432 423.604 227.678 423.74C227.924 423.877 228.219 423.945 228.562 423.945C228.98 423.945 229.318 423.879 229.576 423.746C229.838 423.613 230.035 423.42 230.168 423.166C230.305 422.908 230.395 422.594 230.438 422.223ZM232.828 421.9V421.766C232.828 421.309 232.895 420.885 233.027 420.494C233.16 420.1 233.352 419.758 233.602 419.469C233.855 419.176 234.164 418.949 234.527 418.789C234.895 418.625 235.309 418.543 235.77 418.543C236.234 418.543 236.648 418.625 237.012 418.789C237.379 418.949 237.689 419.176 237.943 419.469C238.197 419.758 238.391 420.1 238.523 420.494C238.656 420.885 238.723 421.309 238.723 421.766V421.9C238.723 422.357 238.656 422.781 238.523 423.172C238.391 423.562 238.197 423.904 237.943 424.197C237.689 424.486 237.381 424.713 237.018 424.877C236.654 425.037 236.242 425.117 235.781 425.117C235.316 425.117 234.9 425.037 234.533 424.877C234.17 424.713 233.861 424.486 233.607 424.197C233.354 423.904 233.16 423.562 233.027 423.172C232.895 422.781 232.828 422.357 232.828 421.9ZM234.24 421.766V421.9C234.24 422.186 234.27 422.455 234.328 422.709C234.387 422.963 234.479 423.186 234.604 423.377C234.729 423.568 234.889 423.719 235.084 423.828C235.279 423.938 235.512 423.992 235.781 423.992C236.043 423.992 236.27 423.938 236.461 423.828C236.656 423.719 236.816 423.568 236.941 423.377C237.066 423.186 237.158 422.963 237.217 422.709C237.279 422.455 237.311 422.186 237.311 421.9V421.766C237.311 421.484 237.279 421.219 237.217 420.969C237.158 420.715 237.064 420.49 236.936 420.295C236.811 420.1 236.65 419.947 236.455 419.838C236.264 419.725 236.035 419.668 235.77 419.668C235.504 419.668 235.273 419.725 235.078 419.838C234.887 419.947 234.729 420.1 234.604 420.295C234.479 420.49 234.387 420.715 234.328 420.969C234.27 421.219 234.24 421.484 234.24 421.766ZM241.318 419.949V425H239.906V418.66H241.236L241.318 419.949ZM241.09 421.596L240.609 421.59C240.609 421.152 240.664 420.748 240.773 420.377C240.883 420.006 241.043 419.684 241.254 419.41C241.465 419.133 241.727 418.92 242.039 418.771C242.355 418.619 242.721 418.543 243.135 418.543C243.424 418.543 243.688 418.586 243.926 418.672C244.168 418.754 244.377 418.885 244.553 419.064C244.732 419.244 244.869 419.475 244.963 419.756C245.061 420.037 245.109 420.377 245.109 420.775V425H243.697V420.898C243.697 420.59 243.65 420.348 243.557 420.172C243.467 419.996 243.336 419.871 243.164 419.797C242.996 419.719 242.795 419.68 242.561 419.68C242.295 419.68 242.068 419.73 241.881 419.832C241.697 419.934 241.547 420.072 241.43 420.248C241.312 420.424 241.227 420.627 241.172 420.857C241.117 421.088 241.09 421.334 241.09 421.596ZM245.021 421.221L244.359 421.367C244.359 420.984 244.412 420.623 244.518 420.283C244.627 419.939 244.785 419.639 244.992 419.381C245.203 419.119 245.463 418.914 245.771 418.766C246.08 418.617 246.434 418.543 246.832 418.543C247.156 418.543 247.445 418.588 247.699 418.678C247.957 418.764 248.176 418.9 248.355 419.088C248.535 419.275 248.672 419.52 248.766 419.82C248.859 420.117 248.906 420.477 248.906 420.898V425H247.488V420.893C247.488 420.572 247.441 420.324 247.348 420.148C247.258 419.973 247.129 419.852 246.961 419.785C246.793 419.715 246.592 419.68 246.357 419.68C246.139 419.68 245.945 419.721 245.777 419.803C245.613 419.881 245.475 419.992 245.361 420.137C245.248 420.277 245.162 420.439 245.104 420.623C245.049 420.807 245.021 421.006 245.021 421.221ZM251.777 419.879V427.438H250.365V418.66H251.666L251.777 419.879ZM255.908 421.771V421.895C255.908 422.355 255.854 422.783 255.744 423.178C255.639 423.568 255.48 423.91 255.27 424.203C255.062 424.492 254.807 424.717 254.502 424.877C254.197 425.037 253.846 425.117 253.447 425.117C253.053 425.117 252.707 425.045 252.41 424.9C252.117 424.752 251.869 424.543 251.666 424.273C251.463 424.004 251.299 423.688 251.174 423.324C251.053 422.957 250.967 422.555 250.916 422.117V421.643C250.967 421.178 251.053 420.756 251.174 420.377C251.299 419.998 251.463 419.672 251.666 419.398C251.869 419.125 252.117 418.914 252.41 418.766C252.703 418.617 253.045 418.543 253.436 418.543C253.834 418.543 254.188 418.621 254.496 418.777C254.805 418.93 255.064 419.148 255.275 419.434C255.486 419.715 255.645 420.055 255.75 420.453C255.855 420.848 255.908 421.287 255.908 421.771ZM254.496 421.895V421.771C254.496 421.479 254.469 421.207 254.414 420.957C254.359 420.703 254.273 420.48 254.156 420.289C254.039 420.098 253.889 419.949 253.705 419.844C253.525 419.734 253.309 419.68 253.055 419.68C252.805 419.68 252.59 419.723 252.41 419.809C252.23 419.891 252.08 420.006 251.959 420.154C251.838 420.303 251.744 420.477 251.678 420.676C251.611 420.871 251.564 421.084 251.537 421.314V422.451C251.584 422.732 251.664 422.99 251.777 423.225C251.891 423.459 252.051 423.646 252.258 423.787C252.469 423.924 252.738 423.992 253.066 423.992C253.32 423.992 253.537 423.938 253.717 423.828C253.896 423.719 254.043 423.568 254.156 423.377C254.273 423.182 254.359 422.957 254.414 422.703C254.469 422.449 254.496 422.18 254.496 421.895ZM260.924 423.506V418.66H262.342V425H261.006L260.924 423.506ZM261.123 422.188L261.598 422.176C261.598 422.602 261.551 422.994 261.457 423.354C261.363 423.709 261.219 424.02 261.023 424.285C260.828 424.547 260.578 424.752 260.273 424.9C259.969 425.045 259.604 425.117 259.178 425.117C258.869 425.117 258.586 425.072 258.328 424.982C258.07 424.893 257.848 424.754 257.66 424.566C257.477 424.379 257.334 424.135 257.232 423.834C257.131 423.533 257.08 423.174 257.08 422.756V418.66H258.492V422.768C258.492 422.998 258.52 423.191 258.574 423.348C258.629 423.5 258.703 423.623 258.797 423.717C258.891 423.811 259 423.877 259.125 423.916C259.25 423.955 259.383 423.975 259.523 423.975C259.926 423.975 260.242 423.896 260.473 423.74C260.707 423.58 260.873 423.365 260.971 423.096C261.072 422.826 261.123 422.523 261.123 422.188ZM266.695 418.66V419.691H263.121V418.66H266.695ZM264.152 417.107H265.564V423.248C265.564 423.443 265.592 423.594 265.646 423.699C265.705 423.801 265.785 423.869 265.887 423.904C265.988 423.939 266.107 423.957 266.244 423.957C266.342 423.957 266.436 423.951 266.525 423.939C266.615 423.928 266.688 423.916 266.742 423.904L266.748 424.982C266.631 425.018 266.494 425.049 266.338 425.076C266.186 425.104 266.01 425.117 265.811 425.117C265.486 425.117 265.199 425.061 264.949 424.947C264.699 424.83 264.504 424.641 264.363 424.379C264.223 424.117 264.152 423.77 264.152 423.336V417.107ZM269.297 418.66V425H267.879V418.66H269.297ZM267.785 416.996C267.785 416.781 267.855 416.604 267.996 416.463C268.141 416.318 268.34 416.246 268.594 416.246C268.844 416.246 269.041 416.318 269.186 416.463C269.33 416.604 269.402 416.781 269.402 416.996C269.402 417.207 269.33 417.383 269.186 417.523C269.041 417.664 268.844 417.734 268.594 417.734C268.34 417.734 268.141 417.664 267.996 417.523C267.855 417.383 267.785 417.207 267.785 416.996ZM272.244 420.014V425H270.832V418.66H272.162L272.244 420.014ZM271.992 421.596L271.535 421.59C271.539 421.141 271.602 420.729 271.723 420.354C271.848 419.979 272.02 419.656 272.238 419.387C272.461 419.117 272.727 418.91 273.035 418.766C273.344 418.617 273.688 418.543 274.066 418.543C274.371 418.543 274.646 418.586 274.893 418.672C275.143 418.754 275.355 418.889 275.531 419.076C275.711 419.264 275.848 419.508 275.941 419.809C276.035 420.105 276.082 420.471 276.082 420.904V425H274.664V420.898C274.664 420.594 274.619 420.354 274.529 420.178C274.443 419.998 274.316 419.871 274.148 419.797C273.984 419.719 273.779 419.68 273.533 419.68C273.291 419.68 273.074 419.73 272.883 419.832C272.691 419.934 272.529 420.072 272.396 420.248C272.268 420.424 272.168 420.627 272.098 420.857C272.027 421.088 271.992 421.334 271.992 421.596ZM281.584 418.66H282.867V424.824C282.867 425.395 282.746 425.879 282.504 426.277C282.262 426.676 281.924 426.979 281.49 427.186C281.057 427.396 280.555 427.502 279.984 427.502C279.742 427.502 279.473 427.467 279.176 427.396C278.883 427.326 278.598 427.213 278.32 427.057C278.047 426.904 277.818 426.703 277.635 426.453L278.297 425.621C278.523 425.891 278.773 426.088 279.047 426.213C279.32 426.338 279.607 426.4 279.908 426.4C280.232 426.4 280.508 426.34 280.734 426.219C280.965 426.102 281.143 425.928 281.268 425.697C281.393 425.467 281.455 425.186 281.455 424.854V420.096L281.584 418.66ZM277.277 421.9V421.777C277.277 421.297 277.336 420.859 277.453 420.465C277.57 420.066 277.738 419.725 277.957 419.439C278.176 419.15 278.441 418.93 278.754 418.777C279.066 418.621 279.42 418.543 279.814 418.543C280.225 418.543 280.574 418.617 280.863 418.766C281.156 418.914 281.4 419.127 281.596 419.404C281.791 419.678 281.943 420.006 282.053 420.389C282.166 420.768 282.25 421.189 282.305 421.654V422.047C282.254 422.5 282.168 422.914 282.047 423.289C281.926 423.664 281.766 423.988 281.566 424.262C281.367 424.535 281.121 424.746 280.828 424.895C280.539 425.043 280.197 425.117 279.803 425.117C279.416 425.117 279.066 425.037 278.754 424.877C278.445 424.717 278.18 424.492 277.957 424.203C277.738 423.914 277.57 423.574 277.453 423.184C277.336 422.789 277.277 422.361 277.277 421.9ZM278.689 421.777V421.9C278.689 422.189 278.717 422.459 278.771 422.709C278.83 422.959 278.918 423.18 279.035 423.371C279.156 423.559 279.309 423.707 279.492 423.816C279.68 423.922 279.9 423.975 280.154 423.975C280.486 423.975 280.758 423.904 280.969 423.764C281.184 423.623 281.348 423.434 281.461 423.195C281.578 422.953 281.66 422.684 281.707 422.387V421.326C281.684 421.096 281.635 420.881 281.561 420.682C281.49 420.482 281.395 420.309 281.273 420.16C281.152 420.008 281 419.891 280.816 419.809C280.633 419.723 280.416 419.68 280.166 419.68C279.912 419.68 279.691 419.734 279.504 419.844C279.316 419.953 279.162 420.104 279.041 420.295C278.924 420.486 278.836 420.709 278.777 420.963C278.719 421.217 278.689 421.488 278.689 421.777Z" fill="#080808"/>
<rect x="349" y="177" width="156" height="60" rx="12" fill="#F2F2F2"/>
<path d="M384.543 211H382.721L382.732 209.834H384.543C385.07 209.834 385.512 209.719 385.867 209.488C386.227 209.258 386.496 208.928 386.676 208.498C386.859 208.068 386.951 207.557 386.951 206.963V206.5C386.951 206.039 386.898 205.631 386.793 205.275C386.691 204.92 386.539 204.621 386.336 204.379C386.137 204.137 385.891 203.953 385.598 203.828C385.309 203.703 384.975 203.641 384.596 203.641H382.686V202.469H384.596C385.162 202.469 385.68 202.564 386.148 202.756C386.617 202.943 387.021 203.215 387.361 203.57C387.705 203.926 387.969 204.352 388.152 204.848C388.336 205.344 388.428 205.898 388.428 206.512V206.963C388.428 207.576 388.336 208.131 388.152 208.627C387.969 209.123 387.705 209.549 387.361 209.904C387.018 210.256 386.607 210.527 386.131 210.719C385.658 210.906 385.129 211 384.543 211ZM383.535 202.469V211H382.064V202.469H383.535ZM391.275 204.66V211H389.857V204.66H391.275ZM389.764 202.996C389.764 202.781 389.834 202.604 389.975 202.463C390.119 202.318 390.318 202.246 390.572 202.246C390.822 202.246 391.02 202.318 391.164 202.463C391.309 202.604 391.381 202.781 391.381 202.996C391.381 203.207 391.309 203.383 391.164 203.523C391.02 203.664 390.822 203.734 390.572 203.734C390.318 203.734 390.119 203.664 389.975 203.523C389.834 203.383 389.764 203.207 389.764 202.996ZM396.883 204.66H398.166V210.824C398.166 211.395 398.045 211.879 397.803 212.277C397.561 212.676 397.223 212.979 396.789 213.186C396.355 213.396 395.854 213.502 395.283 213.502C395.041 213.502 394.771 213.467 394.475 213.396C394.182 213.326 393.896 213.213 393.619 213.057C393.346 212.904 393.117 212.703 392.934 212.453L393.596 211.621C393.822 211.891 394.072 212.088 394.346 212.213C394.619 212.338 394.906 212.4 395.207 212.4C395.531 212.4 395.807 212.34 396.033 212.219C396.264 212.102 396.441 211.928 396.566 211.697C396.691 211.467 396.754 211.186 396.754 210.854V206.096L396.883 204.66ZM392.576 207.9V207.777C392.576 207.297 392.635 206.859 392.752 206.465C392.869 206.066 393.037 205.725 393.256 205.439C393.475 205.15 393.74 204.93 394.053 204.777C394.365 204.621 394.719 204.543 395.113 204.543C395.523 204.543 395.873 204.617 396.162 204.766C396.455 204.914 396.699 205.127 396.895 205.404C397.09 205.678 397.242 206.006 397.352 206.389C397.465 206.768 397.549 207.189 397.604 207.654V208.047C397.553 208.5 397.467 208.914 397.346 209.289C397.225 209.664 397.064 209.988 396.865 210.262C396.666 210.535 396.42 210.746 396.127 210.895C395.838 211.043 395.496 211.117 395.102 211.117C394.715 211.117 394.365 211.037 394.053 210.877C393.744 210.717 393.479 210.492 393.256 210.203C393.037 209.914 392.869 209.574 392.752 209.184C392.635 208.789 392.576 208.361 392.576 207.9ZM393.988 207.777V207.9C393.988 208.189 394.016 208.459 394.07 208.709C394.129 208.959 394.217 209.18 394.334 209.371C394.455 209.559 394.607 209.707 394.791 209.816C394.979 209.922 395.199 209.975 395.453 209.975C395.785 209.975 396.057 209.904 396.268 209.764C396.482 209.623 396.646 209.434 396.76 209.195C396.877 208.953 396.959 208.684 397.006 208.387V207.326C396.982 207.096 396.934 206.881 396.859 206.682C396.789 206.482 396.693 206.309 396.572 206.16C396.451 206.008 396.299 205.891 396.115 205.809C395.932 205.723 395.715 205.68 395.465 205.68C395.211 205.68 394.99 205.734 394.803 205.844C394.615 205.953 394.461 206.104 394.34 206.295C394.223 206.486 394.135 206.709 394.076 206.963C394.018 207.217 393.988 207.488 393.988 207.777ZM401.143 204.66V211H399.725V204.66H401.143ZM399.631 202.996C399.631 202.781 399.701 202.604 399.842 202.463C399.986 202.318 400.186 202.246 400.439 202.246C400.689 202.246 400.887 202.318 401.031 202.463C401.176 202.604 401.248 202.781 401.248 202.996C401.248 203.207 401.176 203.383 401.031 203.523C400.887 203.664 400.689 203.734 400.439 203.734C400.186 203.734 399.986 203.664 399.842 203.523C399.701 203.383 399.631 203.207 399.631 202.996ZM405.596 204.66V205.691H402.021V204.66H405.596ZM403.053 203.107H404.465V209.248C404.465 209.443 404.492 209.594 404.547 209.699C404.605 209.801 404.686 209.869 404.787 209.904C404.889 209.939 405.008 209.957 405.145 209.957C405.242 209.957 405.336 209.951 405.426 209.939C405.516 209.928 405.588 209.916 405.643 209.904L405.648 210.982C405.531 211.018 405.395 211.049 405.238 211.076C405.086 211.104 404.91 211.117 404.711 211.117C404.387 211.117 404.1 211.061 403.85 210.947C403.6 210.83 403.404 210.641 403.264 210.379C403.123 210.117 403.053 209.77 403.053 209.336V203.107ZM410.26 209.729V206.705C410.26 206.479 410.219 206.283 410.137 206.119C410.055 205.955 409.93 205.828 409.762 205.738C409.598 205.648 409.391 205.604 409.141 205.604C408.91 205.604 408.711 205.643 408.543 205.721C408.375 205.799 408.244 205.904 408.15 206.037C408.057 206.17 408.01 206.32 408.01 206.488H406.604C406.604 206.238 406.664 205.996 406.785 205.762C406.906 205.527 407.082 205.318 407.312 205.135C407.543 204.951 407.818 204.807 408.139 204.701C408.459 204.596 408.818 204.543 409.217 204.543C409.693 204.543 410.115 204.623 410.482 204.783C410.854 204.943 411.145 205.186 411.355 205.51C411.57 205.83 411.678 206.232 411.678 206.717V209.535C411.678 209.824 411.697 210.084 411.736 210.314C411.779 210.541 411.84 210.738 411.918 210.906V211H410.471C410.404 210.848 410.352 210.654 410.312 210.42C410.277 210.182 410.26 209.951 410.26 209.729ZM410.465 207.145L410.477 208.018H409.463C409.201 208.018 408.971 208.043 408.771 208.094C408.572 208.141 408.406 208.211 408.273 208.305C408.141 208.398 408.041 208.512 407.975 208.645C407.908 208.777 407.875 208.928 407.875 209.096C407.875 209.264 407.914 209.418 407.992 209.559C408.07 209.695 408.184 209.803 408.332 209.881C408.484 209.959 408.668 209.998 408.883 209.998C409.172 209.998 409.424 209.939 409.639 209.822C409.857 209.701 410.029 209.555 410.154 209.383C410.279 209.207 410.346 209.041 410.354 208.885L410.811 209.512C410.764 209.672 410.684 209.844 410.57 210.027C410.457 210.211 410.309 210.387 410.125 210.555C409.945 210.719 409.729 210.854 409.475 210.959C409.225 211.064 408.936 211.117 408.607 211.117C408.193 211.117 407.824 211.035 407.5 210.871C407.176 210.703 406.922 210.479 406.738 210.197C406.555 209.912 406.463 209.59 406.463 209.23C406.463 208.895 406.525 208.598 406.65 208.34C406.779 208.078 406.967 207.859 407.213 207.684C407.463 207.508 407.768 207.375 408.127 207.285C408.486 207.191 408.896 207.145 409.357 207.145H410.465ZM414.666 202V211H413.248V202H414.666ZM419.939 202.469H421.252L423.719 209.049L426.18 202.469H427.492L424.234 211H423.191L419.939 202.469ZM419.342 202.469H420.59L420.807 208.164V211H419.342V202.469ZM426.842 202.469H428.096V211H426.625V208.164L426.842 202.469ZM433.275 209.729V206.705C433.275 206.479 433.234 206.283 433.152 206.119C433.07 205.955 432.945 205.828 432.777 205.738C432.613 205.648 432.406 205.604 432.156 205.604C431.926 205.604 431.727 205.643 431.559 205.721C431.391 205.799 431.26 205.904 431.166 206.037C431.072 206.17 431.025 206.32 431.025 206.488H429.619C429.619 206.238 429.68 205.996 429.801 205.762C429.922 205.527 430.098 205.318 430.328 205.135C430.559 204.951 430.834 204.807 431.154 204.701C431.475 204.596 431.834 204.543 432.232 204.543C432.709 204.543 433.131 204.623 433.498 204.783C433.869 204.943 434.16 205.186 434.371 205.51C434.586 205.83 434.693 206.232 434.693 206.717V209.535C434.693 209.824 434.713 210.084 434.752 210.314C434.795 210.541 434.855 210.738 434.934 210.906V211H433.486C433.42 210.848 433.367 210.654 433.328 210.42C433.293 210.182 433.275 209.951 433.275 209.729ZM433.48 207.145L433.492 208.018H432.479C432.217 208.018 431.986 208.043 431.787 208.094C431.588 208.141 431.422 208.211 431.289 208.305C431.156 208.398 431.057 208.512 430.99 208.645C430.924 208.777 430.891 208.928 430.891 209.096C430.891 209.264 430.93 209.418 431.008 209.559C431.086 209.695 431.199 209.803 431.348 209.881C431.5 209.959 431.684 209.998 431.898 209.998C432.188 209.998 432.439 209.939 432.654 209.822C432.873 209.701 433.045 209.555 433.17 209.383C433.295 209.207 433.361 209.041 433.369 208.885L433.826 209.512C433.779 209.672 433.699 209.844 433.586 210.027C433.473 210.211 433.324 210.387 433.141 210.555C432.961 210.719 432.744 210.854 432.49 210.959C432.24 211.064 431.951 211.117 431.623 211.117C431.209 211.117 430.84 211.035 430.516 210.871C430.191 210.703 429.938 210.479 429.754 210.197C429.57 209.912 429.479 209.59 429.479 209.23C429.479 208.895 429.541 208.598 429.666 208.34C429.795 208.078 429.982 207.859 430.229 207.684C430.479 207.508 430.783 207.375 431.143 207.285C431.502 207.191 431.912 207.145 432.373 207.145H433.48ZM437.588 205.867V211H436.176V204.66H437.523L437.588 205.867ZM439.527 204.619L439.516 205.932C439.43 205.916 439.336 205.904 439.234 205.896C439.137 205.889 439.039 205.885 438.941 205.885C438.699 205.885 438.486 205.92 438.303 205.99C438.119 206.057 437.965 206.154 437.84 206.283C437.719 206.408 437.625 206.561 437.559 206.74C437.492 206.92 437.453 207.121 437.441 207.344L437.119 207.367C437.119 206.969 437.158 206.6 437.236 206.26C437.314 205.92 437.432 205.621 437.588 205.363C437.748 205.105 437.947 204.904 438.186 204.76C438.428 204.615 438.707 204.543 439.023 204.543C439.109 204.543 439.201 204.551 439.299 204.566C439.4 204.582 439.477 204.6 439.527 204.619ZM441.836 202V211H440.418V202H441.836ZM445.773 204.66L443.014 207.719L441.502 209.266L441.133 208.07L442.275 206.658L444.068 204.66H445.773ZM444.373 211L442.316 208.023L443.207 207.033L446.008 211H444.373ZM449.348 211.117C448.879 211.117 448.455 211.041 448.076 210.889C447.701 210.732 447.381 210.516 447.115 210.238C446.854 209.961 446.652 209.635 446.512 209.26C446.371 208.885 446.301 208.48 446.301 208.047V207.812C446.301 207.316 446.373 206.867 446.518 206.465C446.662 206.062 446.863 205.719 447.121 205.434C447.379 205.145 447.684 204.924 448.035 204.771C448.387 204.619 448.768 204.543 449.178 204.543C449.631 204.543 450.027 204.619 450.367 204.771C450.707 204.924 450.988 205.139 451.211 205.416C451.438 205.689 451.605 206.016 451.715 206.395C451.828 206.773 451.885 207.191 451.885 207.648V208.252H446.986V207.238H450.49V207.127C450.482 206.873 450.432 206.635 450.338 206.412C450.248 206.189 450.109 206.01 449.922 205.873C449.734 205.736 449.484 205.668 449.172 205.668C448.938 205.668 448.729 205.719 448.545 205.82C448.365 205.918 448.215 206.061 448.094 206.248C447.973 206.436 447.879 206.662 447.812 206.928C447.75 207.189 447.719 207.484 447.719 207.812V208.047C447.719 208.324 447.756 208.582 447.83 208.82C447.908 209.055 448.021 209.26 448.17 209.436C448.318 209.611 448.498 209.75 448.709 209.852C448.92 209.949 449.16 209.998 449.43 209.998C449.77 209.998 450.072 209.93 450.338 209.793C450.604 209.656 450.834 209.463 451.029 209.213L451.773 209.934C451.637 210.133 451.459 210.324 451.24 210.508C451.021 210.688 450.754 210.834 450.438 210.947C450.125 211.061 449.762 211.117 449.348 211.117ZM455.893 204.66V205.691H452.318V204.66H455.893ZM453.35 203.107H454.762V209.248C454.762 209.443 454.789 209.594 454.844 209.699C454.902 209.801 454.982 209.869 455.084 209.904C455.186 209.939 455.305 209.957 455.441 209.957C455.539 209.957 455.633 209.951 455.723 209.939C455.812 209.928 455.885 209.916 455.939 209.904L455.945 210.982C455.828 211.018 455.691 211.049 455.535 211.076C455.383 211.104 455.207 211.117 455.008 211.117C454.684 211.117 454.396 211.061 454.146 210.947C453.896 210.83 453.701 210.641 453.561 210.379C453.42 210.117 453.35 209.77 453.35 209.336V203.107ZM458.494 204.66V211H457.076V204.66H458.494ZM456.982 202.996C456.982 202.781 457.053 202.604 457.193 202.463C457.338 202.318 457.537 202.246 457.791 202.246C458.041 202.246 458.238 202.318 458.383 202.463C458.527 202.604 458.6 202.781 458.6 202.996C458.6 203.207 458.527 203.383 458.383 203.523C458.238 203.664 458.041 203.734 457.791 203.734C457.537 203.734 457.338 203.664 457.193 203.523C457.053 203.383 456.982 203.207 456.982 202.996ZM461.441 206.014V211H460.029V204.66H461.359L461.441 206.014ZM461.189 207.596L460.732 207.59C460.736 207.141 460.799 206.729 460.92 206.354C461.045 205.979 461.217 205.656 461.436 205.387C461.658 205.117 461.924 204.91 462.232 204.766C462.541 204.617 462.885 204.543 463.264 204.543C463.568 204.543 463.844 204.586 464.09 204.672C464.34 204.754 464.553 204.889 464.729 205.076C464.908 205.264 465.045 205.508 465.139 205.809C465.232 206.105 465.279 206.471 465.279 206.904V211H463.861V206.898C463.861 206.594 463.816 206.354 463.727 206.178C463.641 205.998 463.514 205.871 463.346 205.797C463.182 205.719 462.977 205.68 462.73 205.68C462.488 205.68 462.271 205.73 462.08 205.832C461.889 205.934 461.727 206.072 461.594 206.248C461.465 206.424 461.365 206.627 461.295 206.857C461.225 207.088 461.189 207.334 461.189 207.596ZM470.781 204.66H472.064V210.824C472.064 211.395 471.943 211.879 471.701 212.277C471.459 212.676 471.121 212.979 470.688 213.186C470.254 213.396 469.752 213.502 469.182 213.502C468.939 213.502 468.67 213.467 468.373 213.396C468.08 213.326 467.795 213.213 467.518 213.057C467.244 212.904 467.016 212.703 466.832 212.453L467.494 211.621C467.721 211.891 467.971 212.088 468.244 212.213C468.518 212.338 468.805 212.4 469.105 212.4C469.43 212.4 469.705 212.34 469.932 212.219C470.162 212.102 470.34 211.928 470.465 211.697C470.59 211.467 470.652 211.186 470.652 210.854V206.096L470.781 204.66ZM466.475 207.9V207.777C466.475 207.297 466.533 206.859 466.65 206.465C466.768 206.066 466.936 205.725 467.154 205.439C467.373 205.15 467.639 204.93 467.951 204.777C468.264 204.621 468.617 204.543 469.012 204.543C469.422 204.543 469.771 204.617 470.061 204.766C470.354 204.914 470.598 205.127 470.793 205.404C470.988 205.678 471.141 206.006 471.25 206.389C471.363 206.768 471.447 207.189 471.502 207.654V208.047C471.451 208.5 471.365 208.914 471.244 209.289C471.123 209.664 470.963 209.988 470.764 210.262C470.564 210.535 470.318 210.746 470.025 210.895C469.736 211.043 469.395 211.117 469 211.117C468.613 211.117 468.264 211.037 467.951 210.877C467.643 210.717 467.377 210.492 467.154 210.203C466.936 209.914 466.768 209.574 466.65 209.184C466.533 208.789 466.475 208.361 466.475 207.9ZM467.887 207.777V207.9C467.887 208.189 467.914 208.459 467.969 208.709C468.027 208.959 468.115 209.18 468.232 209.371C468.354 209.559 468.506 209.707 468.689 209.816C468.877 209.922 469.098 209.975 469.352 209.975C469.684 209.975 469.955 209.904 470.166 209.764C470.381 209.623 470.545 209.434 470.658 209.195C470.775 208.953 470.857 208.684 470.904 208.387V207.326C470.881 207.096 470.832 206.881 470.758 206.682C470.688 206.482 470.592 206.309 470.471 206.16C470.35 206.008 470.197 205.891 470.014 205.809C469.83 205.723 469.613 205.68 469.363 205.68C469.109 205.68 468.889 205.734 468.701 205.844C468.514 205.953 468.359 206.104 468.238 206.295C468.121 206.486 468.033 206.709 467.975 206.963C467.916 207.217 467.887 207.488 467.887 207.777Z" fill="#080808"/>
</svg>
