<svg width="106" height="106" viewBox="0 0 106 106" fill="none" xmlns="http://www.w3.org/2000/svg">
<rect width="106" height="106" rx="24" fill="#433B7F"/>
<g clip-path="url(#clip0_11_3003)">
<path fill-rule="evenodd" clip-rule="evenodd" d="M36.9 73.6H69.1001C71.6899 73.6 73.5299 72.4707 74.6477 70.9182C75.6781 69.4853 76.0001 67.8362 76.0001 66.7V52.9C76.0001 52.29 75.7578 51.705 75.3265 51.2736C74.8951 50.8423 74.3101 50.6 73.7001 50.6H66.8001V39.1C66.8001 37.27 66.0731 35.5149 64.7791 34.2209C63.4851 32.9269 61.7301 32.2 59.9001 32.2H36.9C35.07 32.2 33.315 32.9269 32.021 34.2209C30.727 35.5149 30 37.27 30 39.1V66.7C30 67.8339 30.322 69.4853 31.3524 70.9182C32.4702 72.473 34.3102 73.6 36.9 73.6ZM69.1001 55.2C69.7101 55.2 70.2951 55.4423 70.7264 55.8737C71.1578 56.305 71.4001 56.89 71.4001 57.5V66.7C71.4001 67.31 71.1578 67.895 70.7264 68.3264C70.2951 68.7577 69.7101 69 69.1001 69C68.4901 69 67.9051 68.7577 67.4737 68.3264C67.0424 67.895 66.8001 67.31 66.8001 66.7V57.5C66.8001 56.89 67.0424 56.305 67.4737 55.8737C67.9051 55.4423 68.4901 55.2 69.1001 55.2ZM46.1 48.3C46.1 47.69 46.3424 47.105 46.7737 46.6736C47.205 46.2423 47.79 46 48.4 46C49.01 46 49.5951 46.2423 50.0264 46.6736C50.4577 47.105 50.7 47.69 50.7 48.3C50.7 48.91 50.4577 49.495 50.0264 49.9263C49.5951 50.3577 49.01 50.6 48.4 50.6C47.79 50.6 47.205 50.3577 46.7737 49.9263C46.3424 49.495 46.1 48.91 46.1 48.3ZM48.4 41.4C46.57 41.4 44.815 42.1269 43.521 43.4209C42.227 44.7149 41.5 46.47 41.5 48.3C41.5 50.13 42.227 51.885 43.521 53.179C44.815 54.473 46.57 55.2 48.4 55.2C50.23 55.2 51.9851 54.473 53.2791 53.179C54.5731 51.885 55.3001 50.13 55.3001 48.3C55.3001 46.47 54.5731 44.7149 53.2791 43.4209C51.9851 42.1269 50.23 41.4 48.4 41.4ZM41.5 59.8C40.89 59.8 40.305 60.0423 39.8737 60.4737C39.4423 60.905 39.2 61.49 39.2 62.1C39.2 62.71 39.4423 63.295 39.8737 63.7264C40.305 64.1577 40.89 64.4 41.5 64.4H55.3001C55.9101 64.4 56.4951 64.1577 56.9264 63.7264C57.3577 63.295 57.6001 62.71 57.6001 62.1C57.6001 61.49 57.3577 60.905 56.9264 60.4737C56.4951 60.0423 55.9101 59.8 55.3001 59.8H41.5Z" fill="white"/>
</g>
<defs>
<clipPath id="clip0_11_3003">
<rect width="46" height="46" fill="white" transform="translate(30 30)"/>
</clipPath>
</defs>
</svg>
