<svg width="14" height="17" viewBox="0 0 14 17" fill="none" xmlns="http://www.w3.org/2000/svg">
<path d="M14 11.0115C14 11.4802 13.7812 11.8552 13.5 12.1365V14.6677C13.7812 14.8552 14 15.1677 14 15.5115C14 16.074 13.5312 16.5115 13 16.5115H3C1.3125 16.5115 0 15.199 0 13.5115V3.51147C0 1.85522 1.3125 0.511475 3 0.511475H6V6.51147C6 6.94897 6.46875 7.16772 6.78125 6.91772L8.5 5.51147L10.1875 6.88647C10.5 7.13647 11 6.91772 11 6.51147V0.511475H12.5C13.3125 0.511475 14 1.19897 14 2.01147V11.0115ZM12 14.5115V12.5115H3C2.4375 12.5115 2 12.9802 2 13.5115C2 14.074 2.4375 14.5115 3 14.5115H12Z" fill="#080808" fill-opacity="0.25"/>
</svg>
