<svg width="106" height="106" viewBox="0 0 106 106" fill="none" xmlns="http://www.w3.org/2000/svg">
<rect width="106" height="106" rx="24" fill="#EA6C00"/>
<path d="M64.4986 34.3124C64.4991 34.0277 64.4151 33.7493 64.2572 33.5124C64.0993 33.2755 63.8746 33.0909 63.6116 32.9819C63.3486 32.8729 63.0592 32.8444 62.78 32.9001C62.5008 32.9558 62.2444 33.0931 62.0434 33.2946L56.2934 39.0446C56.16 39.1784 56.0542 39.3371 55.9822 39.5117C55.9102 39.6864 55.8733 39.8735 55.8736 40.0624V48.0923L53.7432 50.2198C53.3171 50.1067 52.8706 50.0929 52.4383 50.1796C52.006 50.2662 51.5993 50.4509 51.2496 50.7195C50.8999 50.9881 50.6166 51.3334 50.4213 51.7287C50.2261 52.1241 50.1243 52.559 50.1236 52.9999C50.1238 53.409 50.2113 53.8134 50.3803 54.1861C50.5493 54.5587 50.7959 54.8909 51.1036 55.1606C51.4113 55.4303 51.773 55.6312 52.1645 55.7499C52.5561 55.8686 52.9685 55.9024 53.3741 55.8489C53.7798 55.7955 54.1693 55.6561 54.5168 55.44C54.8643 55.224 55.1616 54.9362 55.3889 54.5961C55.6163 54.2559 55.7684 53.8711 55.8351 53.4674C55.9019 53.0638 55.8817 52.6505 55.7759 52.2553L57.9062 50.1249H65.9361C66.125 50.1252 66.3121 50.0883 66.4868 50.0163C66.6614 49.9443 66.8201 49.8385 66.9539 49.7051L72.7039 43.9551C72.9054 43.7541 73.0428 43.4977 73.0984 43.2185C73.1541 42.9393 73.1256 42.6499 73.0166 42.3869C72.9076 42.1239 72.723 41.8992 72.4861 41.7413C72.2492 41.5834 71.9708 41.4994 71.6861 41.4999H64.4986V34.3124ZM70.0876 50.6366C70.5823 54.2165 69.9402 57.8613 68.252 61.0566C66.5637 64.2519 63.9145 66.8363 60.6784 68.4449C57.4423 70.0535 53.7827 70.6051 50.2162 70.0219C46.6497 69.4387 43.3564 67.7501 40.8012 65.1944C38.2461 62.6388 36.5581 59.3452 35.9756 55.7786C35.3931 52.2119 35.9454 48.5524 37.5547 45.3166C39.1639 42.0808 41.7488 39.4322 44.9444 37.7445C48.14 36.0569 51.785 35.4155 55.3647 35.9109L54.2636 37.012C53.8627 37.4124 53.5446 37.8879 53.3276 38.4113C53.1105 38.9347 52.9987 39.4958 52.9986 40.0624C50.4398 40.0624 47.9385 40.8212 45.8109 42.2427C43.6834 43.6643 42.0251 45.6849 41.0459 48.0489C40.0667 50.4129 39.8105 53.0142 40.3097 55.5239C40.8089 58.0335 42.0411 60.3387 43.8504 62.1481C45.6598 63.9574 47.965 65.1896 50.4746 65.6888C52.9843 66.188 55.5856 65.9318 57.9496 64.9526C60.3136 63.9734 62.3342 62.3151 63.7558 60.1876C65.1774 58.06 65.9361 55.5587 65.9361 52.9999C67.0795 52.9989 68.1757 52.5439 68.9836 51.7349L70.0876 50.6366ZM52.9986 42.9374C51.0084 42.9374 49.063 43.5275 47.4082 44.6332C45.7534 45.7389 44.4637 47.3105 43.7021 49.1491C42.9405 50.9878 42.7412 53.011 43.1295 54.963C43.5177 56.9149 44.4761 58.7079 45.8834 60.1151C47.2906 61.5224 49.0836 62.4808 51.0355 62.869C52.9875 63.2573 55.0107 63.058 56.8494 62.2964C58.6881 61.5348 60.2596 60.2451 61.3653 58.5903C62.471 56.9355 63.0611 54.9901 63.0611 52.9999H59.0965L58.7371 53.3593C58.668 54.4638 58.2816 55.5248 57.6244 56.4152C56.9671 57.3055 56.0669 57.9873 55.0317 58.3786C53.9966 58.77 52.8705 58.8543 51.7886 58.6215C50.7067 58.3886 49.715 57.8486 48.9325 57.066C48.15 56.2835 47.6099 55.2918 47.377 54.2099C47.1442 53.128 47.2285 52.0019 47.6199 50.9668C48.0112 49.9316 48.693 49.0314 49.5833 48.3741C50.4737 47.7169 51.5348 47.3305 52.6392 47.2614L52.9986 46.902V42.9374Z" fill="white"/>
</svg>
