<svg width="32" height="32" viewBox="0 0 32 32" fill="none" xmlns="http://www.w3.org/2000/svg">
<g clip-path="url(#clip0_11_2942)">
<path fill-rule="evenodd" clip-rule="evenodd" d="M4.80001 30.3305H27.2001C29.0017 30.3305 30.2817 29.5449 31.0593 28.4649C31.7761 27.4681 32.0001 26.3208 32.0001 25.5304V15.9304C32.0001 15.5061 31.8315 15.0991 31.5314 14.7991C31.2314 14.499 30.8244 14.3304 30.4001 14.3304H25.6001V6.33041C25.6001 5.05736 25.0943 3.83646 24.1942 2.93629C23.294 2.03611 22.0731 1.5304 20.8 1.5304H4.80001C3.52697 1.5304 2.30607 2.03611 1.40589 2.93629C0.505714 3.83646 0 5.05736 0 6.33041V25.5304C0 26.3192 0.224001 27.4681 0.940802 28.4649C1.7184 29.5465 2.99841 30.3305 4.80001 30.3305ZM27.2001 17.5304C27.6244 17.5304 28.0314 17.699 28.3314 17.9991C28.6315 18.2991 28.8001 18.7061 28.8001 19.1304V25.5304C28.8001 25.9548 28.6315 26.3618 28.3314 26.6618C28.0314 26.9619 27.6244 27.1305 27.2001 27.1305C26.7757 27.1305 26.3687 26.9619 26.0687 26.6618C25.7686 26.3618 25.6001 25.9548 25.6001 25.5304V19.1304C25.6001 18.7061 25.7686 18.2991 26.0687 17.9991C26.3687 17.699 26.7757 17.5304 27.2001 17.5304ZM11.2 12.7304C11.2 12.3061 11.3686 11.8991 11.6687 11.599C11.9687 11.299 12.3757 11.1304 12.8 11.1304C13.2244 11.1304 13.6313 11.299 13.9314 11.599C14.2315 11.8991 14.4 12.3061 14.4 12.7304C14.4 13.1548 14.2315 13.5617 13.9314 13.8618C13.6313 14.1619 13.2244 14.3304 12.8 14.3304C12.3757 14.3304 11.9687 14.1619 11.6687 13.8618C11.3686 13.5617 11.2 13.1548 11.2 12.7304ZM12.8 7.93041C11.527 7.93041 10.3061 8.43612 9.40591 9.3363C8.50573 10.2365 8.00002 11.4574 8.00002 12.7304C8.00002 14.0035 8.50573 15.2244 9.40591 16.1245C10.3061 17.0247 11.527 17.5304 12.8 17.5304C14.0731 17.5304 15.294 17.0247 16.1941 16.1245C17.0943 15.2244 17.6 14.0035 17.6 12.7304C17.6 11.4574 17.0943 10.2365 16.1941 9.3363C15.294 8.43612 14.0731 7.93041 12.8 7.93041ZM8.00002 20.7304C7.57567 20.7304 7.1687 20.899 6.86864 21.1991C6.56859 21.4991 6.40001 21.9061 6.40001 22.3304C6.40001 22.7548 6.56859 23.1618 6.86864 23.4618C7.1687 23.7619 7.57567 23.9304 8.00002 23.9304H17.6C18.0244 23.9304 18.4314 23.7619 18.7314 23.4618C19.0315 23.1618 19.2 22.7548 19.2 22.3304C19.2 21.9061 19.0315 21.4991 18.7314 21.1991C18.4314 20.899 18.0244 20.7304 17.6 20.7304H8.00002Z" fill="white"/>
</g>
<defs>
<clipPath id="clip0_11_2942">
<rect width="32" height="32" fill="white"/>
</clipPath>
</defs>
</svg>
